<svg width="177" height="20" viewBox="0 0 177 20" fill="none" xmlns="http://www.w3.org/2000/svg">
<path d="M6.36871 8.89816H10.2317V10.4851H6.36871V14.3481H4.78175V10.4851H0.918765V8.89816H4.78175V5.03518H6.36871V8.89816ZM10.342 2.80091H20.5737V4.38786L14.6435 17H12.7642L18.6526 4.47139H10.342V2.80091ZM29.3251 0.107256H30.9538C30.0768 1.4158 29.3947 2.92619 28.9075 4.63844C28.4203 6.35068 28.1766 8.03508 28.1766 9.69164C28.1766 11.3482 28.4203 13.0326 28.9075 14.7449C29.3947 16.4571 30.0768 17.9675 30.9538 19.276H29.3251C28.3924 17.9257 27.6546 16.4084 27.1117 14.724C26.5688 13.0256 26.2974 11.3482 26.2974 9.69164C26.2974 8.03508 26.5688 6.3646 27.1117 4.6802C27.6546 2.98188 28.3924 1.45756 29.3251 0.107256ZM31.5253 7.2068C31.5253 5.74513 32.0055 4.60364 32.9661 3.78232C33.9405 2.961 35.1586 2.55034 36.6202 2.55034C38.6248 2.55034 40.1213 3.17677 41.1097 4.42963C42.112 5.66857 42.6131 7.41561 42.6131 9.67076C42.6131 12.1765 42.0145 14.0697 40.8173 15.3504C39.6341 16.6172 38.0819 17.2506 36.1609 17.2506C34.9219 17.2506 33.7735 16.9791 32.7155 16.4362V14.7657C33.7456 15.3086 34.8802 15.5801 36.1191 15.5801C37.4276 15.5801 38.5135 15.1625 39.3765 14.3272C40.2535 13.4781 40.7408 12.1347 40.8382 10.2972C39.474 11.202 37.9914 11.6545 36.3906 11.6545C35.0959 11.6545 33.9614 11.2647 32.987 10.4851C32.0125 9.69164 31.5253 8.59887 31.5253 7.2068ZM36.7455 4.17905C35.7154 4.17905 34.8802 4.41571 34.2398 4.88901C33.6134 5.36231 33.3002 6.10707 33.3002 7.12328C33.3002 8.15341 33.6273 8.89816 34.2816 9.35755C34.9358 9.80301 35.785 10.0257 36.8291 10.0257C38.3743 10.0257 39.7037 9.53156 40.8173 8.54319C40.5528 5.63377 39.1956 4.17905 36.7455 4.17905ZM53.9122 6.41332C53.9122 7.1372 53.7173 7.79147 53.3275 8.37614C52.9517 8.94689 52.4575 9.33667 51.845 9.54548C52.5688 9.76821 53.1883 10.1789 53.7034 10.7775C54.2324 11.3621 54.4968 12.1486 54.4968 13.137C54.4968 14.4595 54.0027 15.4757 53.0143 16.1856C52.0398 16.8956 50.8009 17.2506 49.2975 17.2506C47.3903 17.2506 45.7407 16.9374 44.3487 16.3109V14.5778C45.699 15.2738 47.2999 15.6149 49.1513 15.601C51.5874 15.601 52.8055 14.7518 52.8055 13.0535C52.8055 11.3552 51.6501 10.506 49.3392 10.506H47.1676V8.83552L49.1513 8.8564C50.1536 8.8564 50.9123 8.64759 51.4273 8.22997C51.9563 7.79843 52.2208 7.2416 52.2208 6.55949C52.2208 5.82169 51.9285 5.24399 51.3438 4.82637C50.7591 4.39483 49.9309 4.17905 48.859 4.17905C47.3834 4.17905 45.9635 4.54099 44.5992 5.26487V3.55262C45.9078 2.88443 47.4043 2.55034 49.0887 2.55034C50.5364 2.55034 51.6988 2.90531 52.5758 3.61527C53.4667 4.32522 53.9122 5.25791 53.9122 6.41332ZM55.6644 2.80091H65.8961V4.38786L59.9659 17H58.0866L63.975 4.47139H55.6644V2.80091ZM66.3573 0.107256H67.986C68.9187 1.45756 69.6565 2.98188 70.1994 4.6802C70.7423 6.3646 71.0137 8.03508 71.0137 9.69164C71.0137 11.3482 70.7423 13.0256 70.1994 14.724C69.6565 16.4084 68.9187 17.9257 67.986 19.276H66.3573C67.2343 17.9675 67.9164 16.4571 68.4036 14.7449C68.8908 13.0326 69.1344 11.3482 69.1344 9.69164C69.1344 8.03508 68.8908 6.35068 68.4036 4.63844C67.9164 2.92619 67.2343 1.4158 66.3573 0.107256ZM86.9482 6.41332C86.9482 7.1372 86.7533 7.79147 86.3636 8.37614C85.9877 8.94689 85.4935 9.33667 84.881 9.54548C85.6049 9.76821 86.2244 10.1789 86.7394 10.7775C87.2684 11.3621 87.5329 12.1486 87.5329 13.137C87.5329 14.4595 87.0387 15.4757 86.0503 16.1856C85.0759 16.8956 83.837 17.2506 82.3335 17.2506C80.4264 17.2506 78.7768 16.9374 77.3847 16.3109V14.5778C78.735 15.2738 80.3359 15.6149 82.1874 15.601C84.6235 15.601 85.8415 14.7518 85.8415 13.0535C85.8415 11.3552 84.6861 10.506 82.3753 10.506H80.2037V8.83552L82.1874 8.8564C83.1896 8.8564 83.9483 8.64759 84.4634 8.22997C84.9924 7.79843 85.2569 7.2416 85.2569 6.55949C85.2569 5.82169 84.9645 5.24399 84.3799 4.82637C83.7952 4.39483 82.9669 4.17905 81.895 4.17905C80.4194 4.17905 78.9995 4.54099 77.6353 5.26487V3.55262C78.9438 2.88443 80.4403 2.55034 82.1247 2.55034C83.5725 2.55034 84.7348 2.90531 85.6118 3.61527C86.5028 4.32522 86.9482 5.25791 86.9482 6.41332ZM98.786 6.41332C98.786 7.1372 98.5911 7.79147 98.2013 8.37614C97.8255 8.94689 97.3313 9.33667 96.7188 9.54548C97.4426 9.76821 98.0621 10.1789 98.5772 10.7775C99.1062 11.3621 99.3706 12.1486 99.3706 13.137C99.3706 14.4595 98.8765 15.4757 97.8881 16.1856C96.9136 16.8956 95.6747 17.2506 94.1713 17.2506C92.2641 17.2506 90.6145 16.9374 89.2225 16.3109V14.5778C90.5728 15.2738 92.1737 15.6149 94.0251 15.601C96.4612 15.601 97.6793 14.7518 97.6793 13.0535C97.6793 11.3552 96.5239 10.506 94.213 10.506H92.0414V8.83552L94.0251 8.8564C95.0274 8.8564 95.7861 8.64759 96.3011 8.22997C96.8301 7.79843 97.0946 7.2416 97.0946 6.55949C97.0946 5.82169 96.8023 5.24399 96.2176 4.82637C95.6329 4.39483 94.8047 4.17905 93.7328 4.17905C92.2572 4.17905 90.8373 4.54099 89.473 5.26487V3.55262C90.7816 2.88443 92.2781 2.55034 93.9625 2.55034C95.4102 2.55034 96.5726 2.90531 97.4496 3.61527C98.3405 4.32522 98.786 5.25791 98.786 6.41332ZM110.624 6.41332C110.624 7.1372 110.429 7.79147 110.039 8.37614C109.663 8.94689 109.169 9.33667 108.556 9.54548C109.28 9.76821 109.9 10.1789 110.415 10.7775C110.944 11.3621 111.208 12.1486 111.208 13.137C111.208 14.4595 110.714 15.4757 109.726 16.1856C108.751 16.8956 107.512 17.2506 106.009 17.2506C104.102 17.2506 102.452 16.9374 101.06 16.3109V14.5778C102.411 15.2738 104.011 15.6149 105.863 15.601C108.299 15.601 109.517 14.7518 109.517 13.0535C109.517 11.3552 108.362 10.506 106.051 10.506H103.879V8.83552L105.863 8.8564C106.865 8.8564 107.624 8.64759 108.139 8.22997C108.668 7.79843 108.932 7.2416 108.932 6.55949C108.932 5.82169 108.64 5.24399 108.055 4.82637C107.471 4.39483 106.642 4.17905 105.571 4.17905C104.095 4.17905 102.675 4.54099 101.311 5.26487V3.55262C102.619 2.88443 104.116 2.55034 105.8 2.55034C107.248 2.55034 108.41 2.90531 109.287 3.61527C110.178 4.32522 110.624 5.25791 110.624 6.41332ZM113.149 11.028H120.603V12.615H113.149V11.028ZM123.186 2.80091H131.706V4.47139H124.836L124.585 8.48054C125.337 8.27173 126.144 8.16733 127.007 8.16733C127.717 8.16733 128.379 8.25085 128.991 8.4179C129.604 8.57103 130.167 8.8216 130.682 9.16962C131.211 9.50371 131.629 9.97702 131.935 10.5895C132.241 11.1881 132.395 11.8981 132.395 12.7194C132.395 14.1254 131.873 15.2321 130.829 16.0395C129.798 16.8469 128.483 17.2506 126.882 17.2506C125.156 17.2506 123.639 16.9304 122.33 16.29V14.6196C123.583 15.2878 125.031 15.6219 126.673 15.6219C127.87 15.6219 128.824 15.3713 129.534 14.8701C130.258 14.369 130.62 13.6521 130.62 12.7194C130.62 10.7427 129.214 9.75429 126.402 9.75429C125.177 9.75429 123.952 9.97702 122.727 10.4225L123.186 2.80091ZM134.861 2.80091H143.38V4.47139H136.51L136.26 8.48054C137.011 8.27173 137.819 8.16733 138.682 8.16733C139.392 8.16733 140.053 8.25085 140.666 8.4179C141.278 8.57103 141.842 8.8216 142.357 9.16962C142.886 9.50371 143.304 9.97702 143.61 10.5895C143.916 11.1881 144.069 11.8981 144.069 12.7194C144.069 14.1254 143.547 15.2321 142.503 16.0395C141.473 16.8469 140.158 17.2506 138.557 17.2506C136.83 17.2506 135.313 16.9304 134.005 16.29V14.6196C135.257 15.2878 136.705 15.6219 138.348 15.6219C139.545 15.6219 140.499 15.3713 141.209 14.8701C141.932 14.369 142.294 13.6521 142.294 12.7194C142.294 10.7427 140.888 9.75429 138.076 9.75429C136.851 9.75429 135.626 9.97702 134.401 10.4225L134.861 2.80091ZM145.909 11.028H153.363V12.615H145.909V11.028ZM164.266 6.41332C164.266 7.1372 164.071 7.79147 163.681 8.37614C163.305 8.94689 162.811 9.33667 162.199 9.54548C162.923 9.76821 163.542 10.1789 164.057 10.7775C164.586 11.3621 164.851 12.1486 164.851 13.137C164.851 14.4595 164.356 15.4757 163.368 16.1856C162.394 16.8956 161.155 17.2506 159.651 17.2506C157.744 17.2506 156.094 16.9374 154.702 16.3109V14.5778C156.053 15.2738 157.654 15.6149 159.505 15.601C161.941 15.601 163.159 14.7518 163.159 13.0535C163.159 11.3552 162.004 10.506 159.693 10.506H157.521V8.83552L159.505 8.8564C160.507 8.8564 161.266 8.64759 161.781 8.22997C162.31 7.79843 162.575 7.2416 162.575 6.55949C162.575 5.82169 162.282 5.24399 161.698 4.82637C161.113 4.39483 160.285 4.17905 159.213 4.17905C157.737 4.17905 156.317 4.54099 154.953 5.26487V3.55262C156.262 2.88443 157.758 2.55034 159.442 2.55034C160.89 2.55034 162.053 2.90531 162.93 3.61527C163.82 4.32522 164.266 5.25791 164.266 6.41332ZM176.104 6.41332C176.104 7.1372 175.909 7.79147 175.519 8.37614C175.143 8.94689 174.649 9.33667 174.036 9.54548C174.76 9.76821 175.38 10.1789 175.895 10.7775C176.424 11.3621 176.688 12.1486 176.688 13.137C176.688 14.4595 176.194 15.4757 175.206 16.1856C174.231 16.8956 172.992 17.2506 171.489 17.2506C169.582 17.2506 167.932 16.9374 166.54 16.3109V14.5778C167.89 15.2738 169.491 15.6149 171.343 15.601C173.779 15.601 174.997 14.7518 174.997 13.0535C174.997 11.3552 173.842 10.506 171.531 10.506H169.359V8.83552L171.343 8.8564C172.345 8.8564 173.104 8.64759 173.619 8.22997C174.148 7.79843 174.412 7.2416 174.412 6.55949C174.412 5.82169 174.12 5.24399 173.535 4.82637C172.951 4.39483 172.122 4.17905 171.05 4.17905C169.575 4.17905 168.155 4.54099 166.791 5.26487V3.55262C168.099 2.88443 169.596 2.55034 171.28 2.55034C172.728 2.55034 173.89 2.90531 174.767 3.61527C175.658 4.32522 176.104 5.25791 176.104 6.41332Z" fill="url(#paint0_linear_32_51)"/>
<defs>
<linearGradient id="paint0_linear_32_51" x1="172.085" y1="-2" x2="96.5196" y2="82.8605" gradientUnits="userSpaceOnUse">
<stop stop-color="#FF612E"/>
<stop offset="1" stop-color="#FFA32B"/>
</linearGradient>
</defs>
</svg>
