<svg width="236" height="3793" viewBox="0 0 236 3793" fill="none" xmlns="http://www.w3.org/2000/svg">
<path d="M185.804 708.459C186.439 708.224 186.763 707.518 186.527 706.883L182.69 696.535C182.455 695.9 181.749 695.576 181.114 695.811C180.479 696.047 180.155 696.752 180.391 697.387L183.801 706.586L174.603 709.997C173.967 710.232 173.644 710.938 173.879 711.573C174.114 712.208 174.82 712.532 175.455 712.296L185.804 708.459ZM113.646 644.09C113.928 643.475 113.658 642.747 113.043 642.464C112.427 642.182 111.699 642.452 111.417 643.067L113.646 644.09ZM102.718 609.144L103.395 608.122L102.718 609.144ZM111.417 643.067C111.134 643.683 111.404 644.411 112.02 644.693C112.635 644.976 113.363 644.706 113.646 644.09L111.417 643.067ZM44.088 571.765C44.6525 572.139 45.4135 571.985 45.7876 571.42C46.1617 570.856 46.0073 570.095 45.4427 569.721L44.088 571.765ZM57.8611 577.95C57.2965 577.575 56.5356 577.73 56.1615 578.294C55.7874 578.859 55.9418 579.62 56.5063 579.994L57.8611 577.95ZM64.7853 585.48C65.3499 585.854 66.1108 585.7 66.4849 585.135C66.859 584.57 66.7046 583.809 66.14 583.435L64.7853 585.48ZM78.5584 591.664C77.9938 591.29 77.2329 591.445 76.8588 592.009C76.4847 592.574 76.6391 593.335 77.2037 593.709L78.5584 591.664ZM85.4826 599.195C86.0472 599.569 86.8081 599.414 87.1822 598.85C87.5563 598.285 87.4019 597.524 86.8373 597.15L85.4826 599.195ZM99.2557 605.379C98.6911 605.005 97.9302 605.159 97.5561 605.724C97.182 606.288 97.3364 607.049 97.901 607.423L99.2557 605.379ZM104.992 612.436C105.498 612.885 106.273 612.839 106.723 612.333C107.173 611.826 107.127 611.051 106.62 610.602L104.992 612.436ZM113.779 620.388C113.503 619.769 112.778 619.491 112.16 619.766C111.541 620.042 111.263 620.767 111.538 621.385L113.779 620.388ZM113.573 628.527C113.665 629.198 114.284 629.667 114.955 629.575C115.626 629.483 116.095 628.864 116.003 628.193L113.573 628.527ZM115.079 640.283C115.272 639.634 114.903 638.951 114.254 638.758C113.605 638.564 112.922 638.934 112.729 639.583L115.079 640.283ZM109.858 647.301C109.675 647.953 110.054 648.631 110.706 648.814C111.358 648.998 112.035 648.618 112.219 647.966L109.858 647.301ZM111.759 660.237C111.625 659.573 110.979 659.143 110.315 659.277C109.651 659.41 109.221 660.057 109.355 660.721L111.759 660.237ZM112.482 669.156C112.814 669.747 113.561 669.957 114.152 669.626C114.743 669.294 114.953 668.547 114.621 667.956L112.482 669.156ZM122.969 676.961C122.405 676.586 121.644 676.74 121.269 677.304C120.895 677.868 121.048 678.629 121.613 679.004L122.969 676.961ZM129.509 683.014C130.125 683.296 130.853 683.026 131.135 682.411C131.418 681.795 131.148 681.067 130.532 680.785L129.509 683.014ZM142.394 686.23C141.779 685.947 141.051 686.217 140.768 686.833C140.486 687.448 140.756 688.176 141.371 688.459L142.394 686.23ZM149.279 692.089C149.895 692.371 150.623 692.101 150.905 691.486C151.188 690.87 150.918 690.142 150.302 689.86L149.279 692.089ZM162.165 695.305C161.549 695.022 160.821 695.292 160.539 695.908C160.256 696.523 160.526 697.251 161.141 697.534L162.165 695.305ZM169.05 701.164C169.665 701.446 170.393 701.177 170.676 700.561C170.958 699.945 170.688 699.217 170.073 698.935L169.05 701.164ZM181.935 704.38C181.319 704.097 180.591 704.367 180.309 704.983C180.026 705.598 180.296 706.326 180.912 706.609L181.935 704.38ZM39.9485 569.022L44.088 571.765L45.4427 569.721L41.3033 566.978L39.9485 569.022ZM56.5063 579.994L64.7853 585.48L66.14 583.435L57.8611 577.95L56.5063 579.994ZM77.2037 593.709L85.4826 599.195L86.8373 597.15L78.5584 591.664L77.2037 593.709ZM97.901 607.423L102.04 610.166L103.395 608.122L99.2557 605.379L97.901 607.423ZM102.04 610.166C103.09 610.862 104.074 611.621 104.992 612.436L106.62 610.602C105.617 609.711 104.541 608.881 103.395 608.122L102.04 610.166ZM111.538 621.385C112.549 623.657 113.235 626.063 113.573 628.527L116.003 628.193C115.633 625.5 114.884 622.871 113.779 620.388L111.538 621.385ZM112.729 639.583C112.378 640.759 111.942 641.923 111.417 643.067L113.646 644.09C114.219 642.841 114.696 641.569 115.079 640.283L112.729 639.583ZM111.417 643.067C110.779 644.457 110.26 645.873 109.858 647.301L112.219 647.966C112.587 646.66 113.061 645.364 113.646 644.09L111.417 643.067ZM109.355 660.721C109.95 663.677 111.007 666.526 112.482 669.156L114.621 667.956C113.271 665.549 112.304 662.942 111.759 660.237L109.355 660.721ZM121.613 679.004C122.849 679.825 124.165 680.561 125.555 681.199L126.578 678.97C125.304 678.385 124.1 677.712 122.969 676.961L121.613 679.004ZM125.555 681.199L129.509 683.014L130.532 680.785L126.578 678.97L125.555 681.199ZM141.371 688.459L149.279 692.089L150.302 689.86L142.394 686.23L141.371 688.459ZM161.141 697.534L169.05 701.164L170.073 698.935L162.165 695.305L161.141 697.534ZM180.912 706.609L184.866 708.424L185.889 706.195L181.935 704.38L180.912 706.609Z" fill="#A3A3A3"/>
<path d="M104.126 52.6791C104.588 52.2173 104.588 51.4687 104.126 51.0069L96.6011 43.4819C96.1393 43.0201 95.3906 43.0201 94.9289 43.4819C94.4671 43.9437 94.4671 44.6924 94.9289 45.1541L101.618 51.843L94.9288 58.5319C94.4671 58.9936 94.4671 59.7423 94.9288 60.2041C95.3906 60.6659 96.1393 60.6659 96.6011 60.2041L104.126 52.6791ZM50.847 38.0818C50.4646 37.5524 49.7255 37.4332 49.1961 37.8156C48.6667 38.1979 48.5475 38.937 48.9298 39.4664L50.847 38.0818ZM75.4479 51.843L75.4479 50.6606L75.4479 51.843ZM48.9298 39.4664C49.3122 39.9958 50.0513 40.1151 50.5807 39.7327C51.1101 39.3504 51.2293 38.6112 50.847 38.0818L48.9298 39.4664ZM4.60882 31.5209C5.23347 31.3305 5.58547 30.6697 5.39503 30.0451C5.20458 29.4204 4.54381 29.0684 3.91916 29.2589L4.60882 31.5209ZM11.5256 26.9398C10.9009 27.1303 10.5489 27.791 10.7394 28.4157C10.9298 29.0403 11.5906 29.3923 12.2152 29.2019L11.5256 26.9398ZM19.7167 27.2389C20.3621 27.1394 20.8047 26.5355 20.7052 25.8901C20.6057 25.2447 20.0019 24.8021 19.3565 24.9016L19.7167 27.2389ZM30.2299 25.0588C29.5876 24.9408 28.9713 25.3659 28.8533 26.0082C28.7353 26.6505 29.1604 27.2668 29.8027 27.3848L30.2299 25.0588ZM38.0189 30.1504C38.6018 30.4448 39.313 30.211 39.6075 29.6281C39.9019 29.0452 39.6681 28.334 39.0852 28.0395L38.0189 30.1504ZM47.8404 34.4895C47.3865 34.0199 46.6379 34.0073 46.1684 34.4612C45.6989 34.9151 45.6862 35.6636 46.1401 36.1331L47.8404 34.4895ZM51.1738 42.2415C51.6115 42.7261 52.3592 42.7642 52.8439 42.3265C53.3285 41.8887 53.3666 41.141 52.9289 40.6564L51.1738 42.2415ZM58.7717 45.6679C58.226 45.3091 57.4928 45.4605 57.134 46.0061C56.7752 46.5517 56.9266 47.2849 57.4722 47.6438L58.7717 45.6679ZM63.8172 50.888C64.4276 51.1203 65.1106 50.8137 65.3428 50.2034C65.5751 49.593 65.2686 48.91 64.6582 48.6777L63.8172 50.888ZM72.1418 50.4802C71.4927 50.4091 70.9088 50.8777 70.8377 51.5269C70.7666 52.1761 71.2352 52.7599 71.8844 52.831L72.1418 50.4802ZM81.8773 53.0254C82.5304 53.0254 83.0598 52.496 83.0598 51.843C83.0598 51.19 82.5304 50.6606 81.8773 50.6606L81.8773 53.0254ZM96.8605 50.6606C96.2075 50.6606 95.6781 51.19 95.6781 51.843C95.6781 52.496 96.2075 53.0254 96.8605 53.0254L96.8605 50.6606ZM1.34483 32.516L4.60882 31.5209L3.91916 29.2589L0.655171 30.254L1.34483 32.516ZM12.2152 29.2019L15.4792 28.2068L14.7896 25.9447L11.5256 26.9398L12.2152 29.2019ZM15.4792 28.2068C16.8821 27.7791 18.2979 27.4576 19.7167 27.2389L19.3565 24.9016C17.8268 25.1374 16.3009 25.4839 14.7896 25.9447L15.4792 28.2068ZM29.8027 27.3848C32.6587 27.9093 35.427 28.8412 38.0189 30.1504L39.0852 28.0395C36.2916 26.6284 33.3081 25.6242 30.2299 25.0588L29.8027 27.3848ZM46.1401 36.1331C47.1379 37.1653 48.0711 38.2774 48.9298 39.4664L50.847 38.0818C49.9219 36.8009 48.9161 35.6022 47.8404 34.4895L46.1401 36.1331ZM48.9298 39.4664C49.631 40.4373 50.3805 41.3631 51.1738 42.2415L52.9289 40.6564C52.193 39.8416 51.4976 38.9827 50.847 38.0818L48.9298 39.4664ZM57.4722 47.6438C59.4627 48.9528 61.5906 50.0408 63.8172 50.888L64.6582 48.6777C62.5925 47.8918 60.6183 46.8823 58.7717 45.6679L57.4722 47.6438ZM71.8844 52.831C73.061 52.9599 74.2503 53.0254 75.4479 53.0254L75.4479 50.6606C74.3367 50.6606 73.2333 50.5997 72.1418 50.4802L71.8844 52.831ZM75.4479 53.0254L81.8773 53.0254L81.8773 50.6606L75.4479 50.6606L75.4479 53.0254ZM96.8605 53.0254L103.29 53.0254L103.29 50.6606L96.8605 50.6606L96.8605 53.0254Z" fill="#A3A3A3"/>
<path d="M235.126 3761.68C235.588 3761.22 235.588 3760.47 235.126 3760.01L227.601 3752.48C227.139 3752.02 226.391 3752.02 225.929 3752.48C225.467 3752.94 225.467 3753.69 225.929 3754.15L232.618 3760.84L225.929 3767.53C225.467 3767.99 225.467 3768.74 225.929 3769.2C226.391 3769.67 227.139 3769.67 227.601 3769.2L235.126 3761.68ZM181.847 3747.08C181.465 3746.55 180.726 3746.43 180.196 3746.82C179.667 3747.2 179.547 3747.94 179.93 3748.47L181.847 3747.08ZM179.93 3748.47C180.312 3749 181.051 3749.12 181.581 3748.73C182.11 3748.35 182.229 3747.61 181.847 3747.08L179.93 3748.47ZM135.609 3740.52C136.233 3740.33 136.585 3739.67 136.395 3739.05C136.205 3738.42 135.544 3738.07 134.919 3738.26L135.609 3740.52ZM142.526 3735.94C141.901 3736.13 141.549 3736.79 141.739 3737.42C141.93 3738.04 142.591 3738.39 143.215 3738.2L142.526 3735.94ZM150.717 3736.24C151.362 3736.14 151.805 3735.54 151.705 3734.89C151.606 3734.24 151.002 3733.8 150.356 3733.9L150.717 3736.24ZM161.23 3734.06C160.588 3733.94 159.971 3734.37 159.853 3735.01C159.735 3735.65 160.16 3736.27 160.803 3736.38L161.23 3734.06ZM169.019 3739.15C169.602 3739.44 170.313 3739.21 170.607 3738.63C170.902 3738.05 170.668 3737.33 170.085 3737.04L169.019 3739.15ZM178.84 3743.49C178.387 3743.02 177.638 3743.01 177.168 3743.46C176.699 3743.92 176.686 3744.66 177.14 3745.13L178.84 3743.49ZM182.174 3751.24C182.612 3751.73 183.359 3751.76 183.844 3751.33C184.329 3750.89 184.367 3750.14 183.929 3749.66L182.174 3751.24ZM189.772 3754.67C189.226 3754.31 188.493 3754.46 188.134 3755.01C187.775 3755.55 187.927 3756.28 188.472 3756.64L189.772 3754.67ZM194.817 3759.89C195.428 3760.12 196.111 3759.81 196.343 3759.2C196.575 3758.59 196.269 3757.91 195.658 3757.68L194.817 3759.89ZM203.142 3759.48C202.493 3759.41 201.909 3759.88 201.838 3760.53C201.767 3761.18 202.235 3761.76 202.884 3761.83L203.142 3759.48ZM212.877 3762.03C213.53 3762.03 214.06 3761.5 214.06 3760.84C214.06 3760.19 213.53 3759.66 212.877 3759.66L212.877 3762.03ZM227.861 3759.66C227.207 3759.66 226.678 3760.19 226.678 3760.84C226.678 3761.5 227.207 3762.03 227.861 3762.03L227.861 3759.66ZM132.345 3741.52L135.609 3740.52L134.919 3738.26L131.655 3739.25L132.345 3741.52ZM143.215 3738.2L146.479 3737.21L145.79 3734.94L142.526 3735.94L143.215 3738.2ZM146.479 3737.21C147.882 3736.78 149.298 3736.46 150.717 3736.24L150.356 3733.9C148.827 3734.14 147.301 3734.48 145.79 3734.94L146.479 3737.21ZM160.803 3736.38C163.659 3736.91 166.427 3737.84 169.019 3739.15L170.085 3737.04C167.292 3735.63 164.308 3734.62 161.23 3734.06L160.803 3736.38ZM177.14 3745.13C178.138 3746.17 179.071 3747.28 179.93 3748.47L181.847 3747.08C180.922 3745.8 179.916 3744.6 178.84 3743.49L177.14 3745.13ZM179.93 3748.47C180.631 3749.44 181.381 3750.36 182.174 3751.24L183.929 3749.66C183.193 3748.84 182.498 3747.98 181.847 3747.08L179.93 3748.47ZM188.472 3756.64C190.463 3757.95 192.591 3759.04 194.817 3759.89L195.658 3757.68C193.593 3756.89 191.618 3755.88 189.772 3754.67L188.472 3756.64ZM202.884 3761.83C204.061 3761.96 205.25 3762.03 206.448 3762.03L206.448 3759.66C205.337 3759.66 204.233 3759.6 203.142 3759.48L202.884 3761.83ZM206.448 3762.03L212.877 3762.03L212.877 3759.66L206.448 3759.66L206.448 3762.03ZM227.861 3762.03L234.29 3762.03L234.29 3759.66L227.861 3759.66L227.861 3762.03Z" fill="#A3A3A3"/>
</svg>
