<svg width="473" height="152" viewBox="0 0 473 152" fill="none" xmlns="http://www.w3.org/2000/svg">
<path d="M190.29 149.172L191.122 148.618L191.117 148.61L191.112 148.603L190.29 149.172ZM205.821 84.1128L204.957 83.6084L204.952 83.6166L205.821 84.1128ZM244.017 27.0281L244.829 27.6121L243.38 26.2575L244.017 27.0281ZM220.302 47.8053L220.978 48.5419L220.978 48.5419L220.302 47.8053ZM192.809 73.8291L192.112 73.1119L192.109 73.1142L192.809 73.8291ZM161.538 106.779L160.777 106.13L160.776 106.131L161.538 106.779ZM144.329 130.074L143.459 129.58L143.454 129.59L144.329 130.074ZM128.169 135.741L128.969 136.341L128.993 136.308L129.015 136.274L128.169 135.741ZM137.403 120.84L138.255 121.363L138.26 121.355L137.403 120.84ZM150.835 98.3839L151.693 98.8964L151.698 98.8893L151.702 98.8821L150.835 98.3839ZM183.365 35.6328L184.285 36.0227L184.288 36.0154L184.291 36.008L183.365 35.6328ZM174.76 25.1393L175.402 25.9058L175.405 25.9036L174.76 25.1393ZM122.502 79.4956L123.268 80.1391L123.271 80.1349L122.502 79.4956ZM101.095 106.359L100.294 105.761L100.292 105.763L101.095 106.359ZM85.775 128.395L86.614 128.94L86.6179 128.933L85.775 128.395ZM81.5776 141.197L82.0921 140.34L82.0592 140.32L82.0248 140.303L81.5776 141.197ZM82.6269 141.827H83.6269V141.261L83.1414 140.97L82.6269 141.827ZM78.8493 144.975L79.2965 145.869L79.3851 145.825L79.4632 145.764L78.8493 144.975ZM63.9485 142.666L64.9021 142.968L64.9034 142.964L63.9485 142.666ZM83.4664 108.458L82.6369 107.899L82.6355 107.901L83.4664 108.458ZM111.589 64.5949L110.714 64.1105L110.714 64.1106L111.589 64.5949ZM120.194 9.1892L119.565 9.96714L119.565 9.96715L120.194 9.1892ZM52.8254 25.9788L52.1969 25.201L52.1937 25.2036L52.8254 25.9788ZM31.6285 46.9658L32.3888 47.6155L32.3945 47.6087L31.6285 46.9658ZM15.6784 71.1008L14.7781 70.6657L14.7781 70.6657L15.6784 71.1008ZM67.5163 100.273L68.3128 100.877L68.319 100.869L68.325 100.861L67.5163 100.273ZM70.4545 82.4338L69.7474 83.1409L69.8344 83.228L69.94 83.2913L70.4545 82.4338ZM73.1828 99.2234L74.0497 99.7219L74.0544 99.7137L73.1828 99.2234ZM58.7018 113.495L58.1818 112.64L58.1744 112.645L58.7018 113.495ZM8.96259 112.025L9.68632 111.335L9.68632 111.335L8.96259 112.025ZM43.5911 20.5222L42.9715 19.7373L42.966 19.7417L43.5911 20.5222ZM62.4794 9.81882L62.8539 10.7461L62.8628 10.7424L62.4794 9.81882ZM85.3552 2.8931L85.548 3.87435L85.5564 3.8727L85.5648 3.8709L85.3552 2.8931ZM128.588 5.20168L128.039 6.03738L128.053 6.0464L128.067 6.05496L128.588 5.20168ZM124.181 61.2369L125.08 61.6744L125.083 61.6689L124.181 61.2369ZM107.182 89.5694L106.341 89.0286L107.968 90.1872L107.182 89.5694ZM123.342 69.0021L124.128 69.62L124.137 69.6088L123.342 69.0021ZM139.712 50.1138L138.984 49.428L138.984 49.428L139.712 50.1138ZM164.056 25.3492L163.362 24.6298L163.355 24.6368L164.056 25.3492ZM177.908 15.2754L177.432 14.3957L177.432 14.3957L177.908 15.2754ZM193.019 37.9414L192.115 37.5133L192.115 37.5133L193.019 37.9414ZM174.13 75.0884L175.007 75.5692L175.012 75.5599L174.13 75.0884ZM169.303 86.2115L168.338 85.9484L168.338 85.9484L169.303 86.2115ZM167.624 91.4582L166.792 90.9035L168.405 92.0829L167.624 91.4582ZM171.612 86.6312L170.847 85.9871L170.844 85.991L171.612 86.6312ZM180.846 75.9278L180.101 75.261L180.093 75.2693L180.846 75.9278ZM197.846 58.5086L198.537 59.231L198.545 59.2233L197.846 58.5086ZM220.511 37.9414L219.875 37.17L219.869 37.1751L219.863 37.1804L220.511 37.9414ZM254.091 10.2386L254.727 11.01L254.735 11.0035L254.091 10.2386ZM265.424 10.4484L264.481 10.7812L264.493 10.8157L264.507 10.8492L265.424 10.4484ZM268.362 19.263L267.396 19.5229L267.399 19.5341L267.402 19.5451L268.362 19.263ZM258.288 34.1637L257.574 33.4633L257.573 33.4651L258.288 34.1637ZM212.956 94.1865L212.09 93.6874L212.087 93.6923L212.956 94.1865ZM212.117 140.148L212.518 141.064L212.529 141.059L212.117 140.148ZM223.66 135.531L224.031 134.602L223.74 134.486L223.435 134.557L223.66 135.531ZM213.586 145.395L213.132 144.504L213.125 144.507L213.586 145.395ZM195.327 150.061C192.918 150.061 191.679 149.453 191.122 148.618L189.458 149.727C190.58 151.41 192.699 152.061 195.327 152.061V150.061ZM191.112 148.603C188.728 145.16 187.513 140.96 187.513 135.951H185.513C185.513 141.295 186.815 145.91 189.468 149.742L191.112 148.603ZM187.513 135.951C187.513 124.201 193.825 107.121 206.689 84.6089L204.952 83.6166C192.072 106.157 185.513 123.635 185.513 135.951H187.513ZM206.684 84.6172C214.915 70.5267 227.626 51.5284 244.829 27.6121L243.205 26.4442C225.989 50.3783 213.236 69.4364 204.957 83.6084L206.684 84.6172ZM243.38 26.2575C236.088 32.2869 228.17 39.2243 219.625 47.0686L220.978 48.5419C229.503 40.7159 237.395 33.8019 244.654 27.7988L243.38 26.2575ZM219.625 47.0686C211.083 54.9111 201.911 63.5923 192.112 73.1119L193.505 74.5464C203.294 65.0378 212.451 56.3697 220.978 48.5419L219.625 47.0686ZM192.109 73.1142C179.364 85.5795 168.918 96.5854 160.777 106.13L162.299 107.428C170.388 97.9438 180.789 86.9833 193.508 74.5441L192.109 73.1142ZM160.776 106.131C152.786 115.523 147.003 123.344 143.459 129.58L145.198 130.568C148.65 124.492 154.34 116.783 162.3 107.427L160.776 106.131ZM143.454 129.59C139.904 136.008 135.768 138.938 131.107 138.938V140.938C136.799 140.938 141.478 137.293 145.204 130.558L143.454 129.59ZM131.107 138.938C130.005 138.938 129.357 138.738 129.008 138.492C128.722 138.29 128.539 137.992 128.539 137.42H126.539C126.539 138.527 126.951 139.488 127.854 140.126C128.694 140.718 129.83 140.938 131.107 140.938V138.938ZM128.539 137.42C128.539 137.126 128.646 136.771 128.969 136.341L127.369 135.141C126.852 135.83 126.539 136.595 126.539 137.42H128.539ZM129.015 136.274C131.396 132.491 134.477 127.521 138.255 121.363L136.551 120.317C132.774 126.472 129.698 131.435 127.322 135.208L129.015 136.274ZM138.26 121.355C142.039 115.058 146.516 107.571 151.693 98.8964L149.976 97.8715C144.799 106.546 140.323 114.03 136.545 120.326L138.26 121.355ZM151.702 98.8821C166.819 72.5663 177.686 51.6084 184.285 36.0227L182.444 35.2429C175.891 50.718 165.071 71.5942 149.968 97.8858L151.702 98.8821ZM184.291 36.008C186.669 30.1328 187.932 25.7035 187.932 22.8307H185.932C185.932 25.2747 184.817 29.3801 182.438 35.2576L184.291 36.008ZM187.932 22.8307C187.932 21.6279 187.731 20.5487 187.179 19.7458C186.581 18.8753 185.672 18.4728 184.624 18.4728V20.4728C185.115 20.4728 185.36 20.63 185.531 20.8788C185.749 21.1953 185.932 21.795 185.932 22.8307H187.932ZM184.624 18.4728C183.309 18.4728 181.777 19.051 180.086 20.0223C178.37 21.008 176.378 22.466 174.115 24.375L175.405 25.9036C177.619 24.035 179.51 22.6597 181.082 21.7566C182.679 20.8391 183.84 20.4728 184.624 20.4728V18.4728ZM174.118 24.3728C158.525 37.437 141.063 55.6047 121.733 78.8564L123.271 80.1349C142.558 56.9353 159.934 38.8655 175.402 25.9058L174.118 24.3728ZM121.737 78.8522C113.612 88.5179 106.464 97.4877 100.294 105.761L101.897 106.957C108.039 98.7205 115.163 89.7814 123.268 80.1391L121.737 78.8522ZM100.292 105.763C94.2658 113.892 89.145 121.257 84.9321 127.857L86.6179 128.933C90.7998 122.382 95.8926 115.056 101.899 106.955L100.292 105.763ZM84.936 127.851C83.2422 130.462 81.9542 132.73 81.0864 134.646C80.2285 136.541 79.7381 138.184 79.7381 139.518H81.7381C81.7381 138.614 82.0872 137.284 82.9083 135.471C83.7195 133.68 84.9499 131.505 86.6139 128.94L84.936 127.851ZM79.7381 139.518C79.7381 140.586 80.1152 141.584 81.1304 142.092L82.0248 140.303C81.9207 140.251 81.7381 140.13 81.7381 139.518H79.7381ZM81.0631 142.055C81.0804 142.065 81.054 142.049 81.0713 142.06C81.0726 142.061 81.074 142.061 81.0754 142.062C81.0767 142.063 81.0781 142.064 81.0794 142.065C81.0808 142.066 81.0821 142.066 81.0835 142.067C81.0848 142.068 81.0862 142.069 81.0875 142.07C81.0889 142.07 81.0902 142.071 81.0916 142.072C81.0929 142.073 81.0943 142.074 81.0956 142.074C81.097 142.075 81.0983 142.076 81.0997 142.077C81.101 142.078 81.1023 142.078 81.1037 142.079C81.1185 142.088 81.0969 142.075 81.1117 142.084C81.12 142.089 81.1194 142.089 81.1277 142.094C81.1309 142.096 81.1403 142.101 81.1435 142.103C81.1451 142.104 81.1497 142.107 81.1513 142.108C81.1551 142.11 81.1554 142.11 81.1592 142.113C81.1865 142.129 81.163 142.115 81.1902 142.131C81.2149 142.146 81.2265 142.153 81.2506 142.167C81.2877 142.19 81.2432 142.163 81.2801 142.185C81.2881 142.19 81.2867 142.189 81.2946 142.194C81.3028 142.199 81.3009 142.198 81.309 142.202C81.3132 142.205 81.3192 142.209 81.3233 142.211C81.3236 142.211 81.3301 142.215 81.3304 142.215C81.3445 142.224 81.3234 142.211 81.3375 142.22C81.3607 142.233 81.3423 142.222 81.3654 142.236C81.3844 142.248 81.374 142.241 81.3928 142.253C81.4006 142.257 81.3918 142.252 81.3996 142.257C81.4077 142.262 81.3982 142.256 81.4063 142.261C81.4232 142.271 81.3962 142.255 81.413 142.265C81.4141 142.266 81.4153 142.266 81.4164 142.267C81.4175 142.268 81.4186 142.268 81.4197 142.269C81.4307 142.275 81.422 142.27 81.433 142.277C81.4481 142.286 81.431 142.276 81.4461 142.285C81.4491 142.287 81.4691 142.298 81.472 142.3C81.5221 142.33 81.4473 142.285 81.4973 142.315C81.5052 142.32 81.4958 142.314 81.5036 142.319C81.5046 142.32 81.5057 142.32 81.5067 142.321C81.5077 142.322 81.5088 142.322 81.5098 142.323C81.5117 142.324 81.5204 142.329 81.5222 142.33C81.5813 142.366 81.4876 142.31 81.5465 142.345C81.5564 142.351 81.5606 142.353 81.5703 142.359C81.5903 142.371 81.5739 142.361 81.5937 142.373C81.6609 142.414 81.5494 142.347 81.6165 142.387C81.6505 142.407 81.6049 142.38 81.6387 142.4C81.6606 142.413 81.6279 142.394 81.6497 142.407C81.6691 142.419 81.6411 142.402 81.6605 142.413C81.6679 142.418 81.6639 142.415 81.6712 142.42C81.6721 142.42 81.6757 142.422 81.6765 142.423C81.6833 142.427 81.675 142.422 81.6818 142.426C81.6827 142.427 81.6835 142.427 81.6844 142.428C81.6853 142.428 81.6862 142.429 81.687 142.429C81.6879 142.43 81.6888 142.43 81.6896 142.431C81.6905 142.431 81.6914 142.432 81.6922 142.432C81.7018 142.438 81.693 142.433 81.7025 142.439C81.7244 142.452 81.6909 142.432 81.7127 142.445C81.7158 142.446 81.7147 142.446 81.7178 142.448C81.7186 142.448 81.7194 142.449 81.7203 142.449C81.7211 142.45 81.7219 142.45 81.7228 142.451C81.744 142.463 81.7214 142.45 81.7425 142.463C81.7492 142.467 81.7552 142.47 81.7617 142.474C81.7766 142.483 81.7563 142.471 81.7711 142.48C81.7713 142.48 81.7803 142.485 81.7804 142.485C81.7812 142.486 81.782 142.486 81.7827 142.487C81.7835 142.487 81.7843 142.488 81.785 142.488C81.785 142.488 81.7896 142.491 81.7896 142.491C81.8013 142.498 81.7869 142.489 81.7986 142.496C81.8023 142.498 81.8127 142.505 81.8163 142.507C81.8253 142.512 81.8246 142.512 81.8335 142.517C81.8351 142.518 81.8402 142.521 81.8418 142.522C81.8429 142.523 81.8449 142.524 81.846 142.525C81.8484 142.526 81.8477 142.526 81.8501 142.527C81.8626 142.535 81.8458 142.524 81.8582 142.532C81.8602 142.533 81.8643 142.536 81.8662 142.537C81.8671 142.537 81.8812 142.546 81.8819 142.546C81.953 142.589 81.8412 142.522 81.9116 142.564C81.927 142.573 81.9245 142.572 81.9393 142.581C81.9531 142.589 81.9386 142.58 81.9523 142.588C81.9655 142.596 81.9518 142.588 81.9649 142.596C82.003 142.619 81.951 142.588 81.9884 142.61C81.995 142.614 81.9931 142.613 81.9995 142.617C82.0126 142.625 81.997 142.615 82.01 142.623C82.0387 142.64 81.9914 142.612 82.02 142.629C82.027 142.633 82.0225 142.631 82.0294 142.635C82.0308 142.636 82.0304 142.635 82.0317 142.636C82.0325 142.637 82.0332 142.637 82.034 142.637C82.0389 142.64 82.0336 142.637 82.0384 142.64C82.0386 142.64 82.0426 142.643 82.0427 142.643C82.0445 142.644 82.0451 142.644 82.0469 142.645C82.1122 142.684 81.9975 142.616 82.0622 142.654C82.0629 142.655 82.0634 142.655 82.064 142.655C82.0663 142.657 82.0635 142.655 82.0658 142.656C82.0668 142.657 82.0681 142.658 82.0691 142.659C82.0772 142.663 82.0677 142.658 82.0756 142.662C82.0871 142.669 82.07 142.659 82.0814 142.666C82.086 142.669 82.0825 142.667 82.0868 142.669C82.0946 142.674 82.0841 142.667 82.0917 142.672C82.0945 142.674 82.09 142.671 82.0928 142.673C82.093 142.673 82.0932 142.673 82.0934 142.673C82.0936 142.673 82.0938 142.673 82.0939 142.673C82.0949 142.674 82.094 142.673 82.095 142.674C82.0957 142.674 82.0954 142.674 82.096 142.675C82.0965 142.675 82.0966 142.675 82.0971 142.675C82.0977 142.676 82.0974 142.675 82.098 142.676C82.0987 142.676 82.0992 142.677 82.0999 142.677C82.1045 142.68 82.0988 142.676 82.1032 142.679C82.1104 142.683 82.1019 142.678 82.1083 142.682C82.1092 142.683 82.108 142.682 82.1088 142.682C82.1099 142.683 82.1083 142.682 82.1093 142.683C82.1094 142.683 82.1095 142.683 82.1095 142.683C82.1096 142.683 82.1097 142.683 82.1097 142.683C82.1098 142.683 82.1099 142.683 82.1099 142.683C82.11 142.683 82.1101 142.683 82.1101 142.683C82.111 142.684 82.1107 142.683 82.1114 142.684C82.1123 142.684 82.1114 142.684 82.1122 142.684C82.1123 142.684 82.1123 142.684 82.1124 142.684C82.1124 142.684 82.1124 142.684 82.1124 142.684C82.1124 142.684 82.1124 142.684 82.1124 142.684C82.1124 142.685 82.1124 142.685 82.6269 141.827C83.1414 140.97 83.1414 140.97 83.1414 140.97C83.1414 140.97 83.1414 140.97 83.1414 140.97C83.1414 140.969 83.1414 140.969 83.1414 140.969C83.1413 140.969 83.1414 140.969 83.1413 140.969C83.1413 140.969 83.1413 140.969 83.1412 140.969C83.1412 140.969 83.1412 140.969 83.1412 140.969C83.1411 140.969 83.1411 140.969 83.141 140.969C83.1406 140.969 83.1413 140.969 83.1409 140.969C83.1408 140.969 83.1407 140.969 83.1406 140.969C83.1402 140.969 83.1408 140.969 83.1404 140.969C83.1177 140.955 83.1607 140.981 83.1373 140.967C83.1361 140.966 83.1381 140.967 83.1368 140.967C83.1367 140.967 83.1366 140.967 83.1365 140.967C83.1364 140.967 83.1363 140.966 83.1362 140.966C83.1345 140.965 83.1368 140.967 83.135 140.966C83.1326 140.964 83.1348 140.966 83.1322 140.964C83.1132 140.953 83.1447 140.971 83.125 140.96C83.1239 140.959 83.1241 140.959 83.1229 140.958C83.1219 140.958 83.1217 140.958 83.1207 140.957C83.12 140.957 83.1167 140.955 83.1158 140.954C83.0866 140.937 83.1344 140.965 83.1045 140.947C83.1008 140.945 83.1052 140.948 83.1014 140.945C83.0994 140.944 83.1002 140.945 83.0981 140.944C83.0941 140.941 83.0954 140.942 83.0912 140.939C83.0865 140.937 83.0886 140.938 83.0838 140.935C83.0832 140.935 83.0806 140.933 83.0799 140.933C83.0787 140.932 83.0771 140.931 83.0758 140.93C83.0491 140.914 83.0943 140.941 83.0674 140.925C83.0637 140.923 83.0623 140.922 83.0584 140.92C83.0538 140.917 83.0538 140.917 83.0489 140.914C83.0461 140.912 83.042 140.91 83.039 140.908C83.0267 140.901 83.0409 140.909 83.0285 140.902C83.023 140.898 83.0231 140.899 83.0174 140.895C83.014 140.893 83.0152 140.894 83.0117 140.892C83.0109 140.891 83.0097 140.89 83.0088 140.89C83.0045 140.887 83.0103 140.891 83.0059 140.888C83.0006 140.885 83.0053 140.888 83 140.885C82.9995 140.884 82.9989 140.884 82.9984 140.884C82.9979 140.883 82.9974 140.883 82.9969 140.883C82.9961 140.882 82.9947 140.882 82.9939 140.881C82.9853 140.876 82.9962 140.882 82.9877 140.877C82.9857 140.876 82.9865 140.877 82.9845 140.875C82.984 140.875 82.9834 140.875 82.9829 140.874C82.9824 140.874 82.9818 140.874 82.9813 140.873C82.962 140.862 82.9877 140.877 82.9683 140.866C82.9579 140.859 82.9652 140.864 82.9547 140.857C82.945 140.852 82.9575 140.859 82.9477 140.853C82.9424 140.85 82.9459 140.852 82.9406 140.849C82.8823 140.814 82.9698 140.867 82.9109 140.831C82.9077 140.829 82.8986 140.824 82.8952 140.822C82.8933 140.821 82.8812 140.813 82.8791 140.812C82.8506 140.795 82.8911 140.819 82.8624 140.802C82.8555 140.798 82.8609 140.801 82.8539 140.797C82.8463 140.792 82.8573 140.799 82.8496 140.794C82.8444 140.791 82.8505 140.795 82.8453 140.792C82.839 140.788 82.834 140.785 82.8276 140.781C82.8234 140.779 82.8228 140.778 82.8186 140.776C82.8129 140.772 82.8151 140.774 82.8094 140.77C82.799 140.764 82.8106 140.771 82.8001 140.765C82.7987 140.764 82.7921 140.76 82.7907 140.759C82.7886 140.758 82.7738 140.749 82.7715 140.748C82.7642 140.743 82.7593 140.74 82.7518 140.736C82.7441 140.731 82.7394 140.728 82.7315 140.724C82.7228 140.718 82.7351 140.726 82.7264 140.72C82.7255 140.72 82.7247 140.719 82.7238 140.719C82.7229 140.718 82.7221 140.718 82.7212 140.717C82.7075 140.709 82.7246 140.719 82.7108 140.711C82.6915 140.7 82.709 140.71 82.6895 140.698C82.6755 140.69 82.6819 140.694 82.6677 140.685C82.6539 140.677 82.6595 140.68 82.6455 140.672C82.6141 140.653 82.6313 140.663 82.5993 140.644C82.5948 140.642 82.5979 140.643 82.5934 140.641C82.5906 140.639 82.5904 140.639 82.5875 140.637C82.5805 140.633 82.5825 140.634 82.5755 140.63C82.5745 140.629 82.5735 140.629 82.5725 140.628C82.5715 140.628 82.5705 140.627 82.5695 140.626C82.5685 140.626 82.5675 140.625 82.5664 140.625C82.5654 140.624 82.5644 140.623 82.5634 140.623C82.5569 140.619 82.5577 140.619 82.5512 140.615C82.5191 140.596 82.5586 140.62 82.5263 140.6C82.512 140.592 82.528 140.601 82.5137 140.593C82.512 140.592 82.5027 140.586 82.501 140.585C82.4726 140.568 82.5036 140.587 82.4751 140.57C82.474 140.569 82.4729 140.568 82.4718 140.568C82.4707 140.567 82.4696 140.566 82.4685 140.566C82.4674 140.565 82.4663 140.564 82.4653 140.564C82.4642 140.563 82.4631 140.562 82.462 140.562C82.4518 140.556 82.4655 140.564 82.4553 140.558C82.4533 140.557 82.4507 140.555 82.4487 140.554C82.3806 140.513 82.4632 140.563 82.3944 140.521C82.3767 140.511 82.3843 140.515 82.3665 140.505C82.3145 140.473 82.3901 140.519 82.338 140.487C82.3027 140.466 82.3446 140.491 82.3091 140.47C82.3001 140.465 82.2888 140.458 82.2796 140.452C82.2781 140.451 82.2514 140.435 82.2496 140.434C82.2395 140.428 82.2522 140.436 82.2421 140.43C82.2217 140.418 82.2549 140.438 82.2345 140.425C82.2332 140.425 82.2319 140.424 82.2306 140.423C82.2294 140.422 82.2281 140.422 82.2268 140.421C82.224 140.419 82.222 140.418 82.2192 140.416C82.2021 140.406 82.2208 140.417 82.2037 140.407C82.1828 140.394 82.2091 140.41 82.1882 140.398C82.1637 140.383 82.1813 140.393 82.1566 140.379C82.119 140.356 82.1625 140.382 82.1246 140.359C82.1119 140.352 82.1212 140.357 82.1084 140.35C82.0755 140.33 82.1251 140.36 82.0921 140.34L81.0631 142.055ZM81.6269 141.827C81.6269 141.656 81.6719 141.529 81.6948 141.471C81.7208 141.406 81.7481 141.36 81.7625 141.337C81.7784 141.311 81.7915 141.293 81.7978 141.285C81.8013 141.28 81.8041 141.277 81.8058 141.275C81.8075 141.273 81.8085 141.271 81.8087 141.271C81.8088 141.271 81.8067 141.274 81.8016 141.279C81.7967 141.284 81.7898 141.292 81.7806 141.301C81.7619 141.32 81.7368 141.345 81.7042 141.375C81.5697 141.502 81.3526 141.692 81.0423 141.951C80.426 142.464 79.4923 143.208 78.2353 144.186L79.4632 145.764C80.7247 144.783 81.6798 144.023 82.3227 143.487C82.6421 143.221 82.8971 143 83.0775 142.829C83.1651 142.747 83.2538 142.658 83.3272 142.573C83.3624 142.532 83.4138 142.469 83.4618 142.391C83.4814 142.36 83.6269 142.139 83.6269 141.827H81.6269ZM78.4021 144.081C76.318 145.123 73.9555 145.654 71.294 145.654V147.654C74.2289 147.654 76.9034 147.066 79.2965 145.869L78.4021 144.081ZM71.294 145.654C68.4511 145.654 66.6226 145.316 65.6324 144.778C65.1631 144.524 64.954 144.263 64.8627 144.037C64.7714 143.811 64.7411 143.477 64.9021 142.968L62.9949 142.365C62.7362 143.185 62.6971 144.015 63.008 144.785C63.319 145.556 63.9232 146.126 64.6782 146.536C66.1364 147.328 68.4004 147.654 71.294 147.654V145.654ZM64.9034 142.964C66.8118 136.829 73.2297 125.545 84.2974 109.014L82.6355 107.901C71.5968 124.389 65.0028 135.911 62.9937 142.369L64.9034 142.964ZM84.296 109.016C98.7037 87.6144 108.102 72.9583 112.464 65.0792L110.714 64.1106C106.401 71.9017 97.0513 86.4876 82.6369 107.899L84.296 109.016ZM112.464 65.0793C121.857 48.1147 126.65 34.4274 126.65 24.09H124.65C124.65 33.9 120.069 47.216 110.714 64.1105L112.464 65.0793ZM126.65 24.09C126.65 16.9457 124.793 11.6184 120.822 8.41126L119.565 9.96715C122.87 12.6364 124.65 17.2429 124.65 24.09H126.65ZM120.822 8.41126C116.928 5.2665 111.132 3.78193 103.614 3.78193V5.78193C110.926 5.78193 116.183 7.23554 119.565 9.96714L120.822 8.41126ZM103.614 3.78193C86.943 3.78193 69.7981 10.9792 52.1969 25.201L53.4539 26.7566C70.831 12.7159 87.5452 5.78193 103.614 5.78193V3.78193ZM52.1937 25.2036C44.5872 31.4015 37.477 38.4419 30.8626 46.3229L32.3945 47.6087C38.9319 39.8194 45.9529 32.8685 53.4571 26.754L52.1937 25.2036ZM30.8683 46.3161C24.2414 54.071 18.8759 62.1874 14.7781 70.6657L16.5788 71.536C20.5959 63.2247 25.8638 55.251 32.3888 47.6154L30.8683 46.3161ZM14.7781 70.6657C10.6648 79.1759 8.5922 87.5788 8.5922 95.8655H10.5922C10.5922 87.9222 12.5771 79.8153 16.5788 71.536L14.7781 70.6657ZM8.5922 95.8655C8.5922 103.281 10.3379 109.028 14.0062 112.921C17.685 116.825 23.1339 118.692 30.1595 118.692V116.692C23.4735 116.692 18.6388 114.921 15.4618 111.55C12.2743 108.167 10.5922 103.001 10.5922 95.8655H8.5922ZM30.1595 118.692C46.5249 118.692 59.2878 112.768 68.3128 100.877L66.7198 99.6682C58.1158 111.004 45.974 116.692 30.1595 116.692V118.692ZM68.325 100.861C71.7582 96.1404 73.5532 91.6001 73.5532 87.2608H71.5532C71.5532 91.0365 69.9903 95.1709 66.7076 99.6846L68.325 100.861ZM73.5532 87.2608C73.5532 84.7066 72.7943 82.6715 70.969 81.5763L69.94 83.2913C70.9129 83.8751 71.5532 85.058 71.5532 87.2608H73.5532ZM71.1616 81.7267C71.1862 81.7513 71.2056 81.777 71.2201 81.8013C71.2345 81.8251 71.2421 81.8443 71.2458 81.8552C71.2524 81.8752 71.2446 81.8638 71.2446 81.8042H69.2446C69.2446 82.2382 69.3538 82.7473 69.7474 83.1409L71.1616 81.7267ZM71.2446 81.8042C71.2446 81.7899 71.2468 81.8259 71.2177 81.8841C71.1866 81.9465 71.1428 81.9875 71.1141 82.0066C71.0921 82.0213 71.1009 82.0087 71.1699 81.9934C71.2384 81.9781 71.3464 81.9647 71.5038 81.9647V79.9647C71.0046 79.9647 70.4552 80.0422 70.0047 80.3425C69.4826 80.6906 69.2446 81.2331 69.2446 81.8042H71.2446ZM71.5038 81.9647C73.0859 81.9647 74.1229 82.4681 74.8019 83.3561C75.5198 84.2948 75.9604 85.821 75.9604 88.1003H77.9604C77.9604 85.6225 77.4916 83.5809 76.3907 82.1412C75.2508 80.6506 73.5595 79.9647 71.5038 79.9647V81.9647ZM75.9604 88.1003C75.9604 90.782 74.8001 94.3085 72.3112 98.7331L74.0544 99.7137C76.6024 95.1839 77.9604 91.2949 77.9604 88.1003H75.9604ZM72.3159 98.7249C69.1948 104.153 64.4982 108.796 58.1818 112.64L59.2217 114.349C65.7773 110.358 70.7348 105.487 74.0497 99.7219L72.3159 98.7249ZM58.1744 112.645C50.222 117.581 41.451 120.05 31.8384 120.05V122.05C41.8137 122.05 50.9516 119.482 59.2291 114.344L58.1744 112.645ZM31.8384 120.05C22.5545 120.05 15.2062 117.124 9.68632 111.335L8.23885 112.716C14.1919 118.959 22.0941 122.05 31.8384 122.05V120.05ZM9.68632 111.335C4.15833 105.538 1.35792 97.8961 1.35792 88.3102H-0.642081C-0.642081 98.3122 2.29396 106.481 8.23885 112.716L9.68632 111.335ZM1.35792 88.3102C1.35792 66.6624 15.4756 44.3231 44.2163 21.3027L42.966 19.7417C14.0624 42.8926 -0.642081 65.7454 -0.642081 88.3102H1.35792ZM44.2108 21.3071C49.4422 17.177 55.6529 13.6542 62.8539 10.7461L62.105 8.89158C54.755 11.8598 48.3734 15.4726 42.9715 19.7373L44.2108 21.3071ZM62.8628 10.7424C70.2171 7.68969 77.7785 5.4005 85.548 3.87435L85.1625 1.91185C77.2617 3.4638 69.5726 5.79176 62.096 8.89523L62.8628 10.7424ZM85.5648 3.8709C93.3454 2.20363 100.48 1.37467 106.972 1.37467V-0.625332C100.312 -0.625332 93.0354 0.224662 85.1457 1.9153L85.5648 3.8709ZM106.972 1.37467C116.401 1.37467 123.378 2.97434 128.039 6.03738L129.138 4.36597C124.005 0.993003 116.571 -0.625332 106.972 -0.625332V1.37467ZM128.067 6.05496C132.711 8.89312 135.144 13.9561 135.144 21.5715H137.144C137.144 13.5167 134.539 7.66643 129.11 4.3484L128.067 6.05496ZM135.144 21.5715C135.144 31.1355 131.237 44.1913 123.279 60.805L125.083 61.6689C133.075 44.9832 137.144 31.5955 137.144 21.5715H135.144ZM123.282 60.7995C120.793 65.9148 115.159 75.3109 106.341 89.0286L108.023 90.1102C116.833 76.4049 122.532 66.9127 125.08 61.6744L123.282 60.7995ZM107.968 90.1872L124.128 69.62L122.555 68.3843L106.395 88.9516L107.968 90.1872ZM124.137 69.6088C128.166 64.3295 133.597 58.0609 140.439 50.7996L138.984 49.428C132.115 56.7177 126.633 63.0414 122.547 68.3955L124.137 69.6088ZM140.439 50.7996C147.284 43.5355 155.39 35.2897 164.758 26.0616L163.355 24.6368C153.974 33.8772 145.85 42.1412 138.984 49.428L140.439 50.7996ZM164.751 26.0686C168.74 22.2169 173.283 18.9121 178.383 16.1551L177.432 14.3957C172.179 17.2353 167.488 20.6464 163.362 24.6298L164.751 26.0686ZM178.383 16.1551C183.495 13.3923 187.73 12.078 191.13 12.078V10.078C187.254 10.078 182.675 11.5621 177.432 14.3957L178.383 16.1551ZM191.13 12.078C193.48 12.078 195.062 12.6955 196.07 13.7595C197.088 14.8337 197.685 16.5358 197.685 19.0531H199.685C199.685 16.2537 199.023 13.9683 197.522 12.3841C196.012 10.7897 193.817 10.078 191.13 10.078V12.078ZM197.685 19.0531C197.685 23.4412 195.877 29.5718 192.115 37.5133L193.922 38.3695C197.716 30.3609 199.685 23.8992 199.685 19.0531H197.685ZM192.115 37.5133C187.087 48.1279 180.799 60.4952 173.248 74.6169L175.012 75.5599C182.573 61.419 188.876 49.0217 193.922 38.3695L192.115 37.5133ZM173.253 74.6075C170.855 78.9804 169.207 82.765 168.338 85.9484L170.268 86.4746C171.079 83.5017 172.648 79.8709 175.007 75.5692L173.253 74.6075ZM168.338 85.9484C167.92 87.482 167.575 88.6727 167.301 89.527C167.165 89.9547 167.049 90.2881 166.954 90.5332C166.907 90.6557 166.867 90.7489 166.836 90.8168C166.802 90.89 166.787 90.9116 166.792 90.9035L168.456 92.0129C168.593 91.8085 168.713 91.5295 168.819 91.2552C168.934 90.9582 169.063 90.5832 169.206 90.1365C169.493 89.2418 169.847 88.0191 170.268 86.4746L168.338 85.9484ZM168.405 92.0829C168.957 91.3928 170.279 89.7922 172.38 87.2714L170.844 85.991C168.747 88.5071 167.411 90.1245 166.843 90.8335L168.405 92.0829ZM172.377 87.2754C174.609 84.624 177.683 81.0616 181.599 76.5864L180.093 75.2693C176.174 79.7485 173.091 83.3217 170.847 85.9871L172.377 87.2754ZM181.591 76.5946C186.327 71.3015 191.975 65.5138 198.537 59.2309L197.154 57.7863C190.564 64.0956 184.879 69.9208 180.101 75.2611L181.591 76.5946ZM198.545 59.2233C205.101 52.8063 212.639 45.9661 221.16 38.7024L219.863 37.1804C211.314 44.4676 203.741 51.3389 197.146 57.794L198.545 59.2233ZM221.148 38.7128L254.727 11.0099L253.454 9.46718L219.875 37.17L221.148 38.7128ZM254.735 11.0035C257.322 8.82449 259.475 7.88064 261.226 7.88064V5.88064C258.78 5.88064 256.176 7.1754 253.447 9.47364L254.735 11.0035ZM261.226 7.88064C261.985 7.88064 262.591 8.10431 263.097 8.53452C263.621 8.97976 264.099 9.69901 264.481 10.7812L266.367 10.1156C265.909 8.81931 265.268 7.75467 264.392 7.01065C263.499 6.2516 262.426 5.88064 261.226 5.88064V7.88064ZM264.507 10.8492C265.459 13.0247 266.424 15.9105 267.396 19.5229L269.327 19.003C268.341 15.3399 267.347 12.3493 266.34 10.0476L264.507 10.8492ZM267.402 19.5451C267.492 19.8482 267.484 20.3668 267.185 21.1919C266.892 22.0028 266.355 23.0063 265.54 24.212C263.911 26.6212 261.267 29.7014 257.574 33.4633L259.002 34.8642C262.725 31.0707 265.467 27.8898 267.197 25.3321C268.06 24.0543 268.695 22.8979 269.066 21.8725C269.432 20.8612 269.582 19.867 269.321 18.9808L267.402 19.5451ZM257.573 33.4651C240.024 51.435 224.863 71.5099 212.09 93.6874L213.823 94.6856C226.514 72.6505 241.574 52.7102 259.004 34.8624L257.573 33.4651ZM212.087 93.6923C206.267 103.93 201.888 112.772 198.961 120.212C196.041 127.635 194.537 133.736 194.537 138.469H196.537C196.537 134.107 197.936 128.281 200.822 120.944C203.702 113.623 208.033 104.871 213.826 94.6807L212.087 93.6923ZM194.537 138.469C194.537 140.575 194.876 142.328 195.697 143.582C196.567 144.909 197.897 145.555 199.524 145.555V143.555C198.494 143.555 197.83 143.187 197.37 142.486C196.862 141.71 196.537 140.42 196.537 138.469H194.537ZM199.524 145.555C200.557 145.555 202.177 145.127 204.262 144.397C206.395 143.651 209.149 142.538 212.518 141.064L211.716 139.232C208.368 140.696 205.666 141.787 203.601 142.51C201.489 143.249 200.171 143.555 199.524 143.555V145.555ZM212.529 141.059C218.43 138.39 222.182 136.898 223.884 136.505L223.435 134.557C221.5 135.003 217.556 136.59 211.705 139.237L212.529 141.059ZM223.288 136.459C223.571 136.573 223.697 136.668 223.739 136.71C223.756 136.727 223.747 136.722 223.733 136.692C223.718 136.66 223.709 136.619 223.709 136.58H225.709C225.709 135.49 224.788 134.905 224.031 134.602L223.288 136.459ZM223.709 136.58C223.709 136.81 223.604 137.181 223.208 137.719C222.817 138.25 222.196 138.87 221.307 139.574C219.53 140.982 216.818 142.626 213.132 144.504L214.04 146.286C217.769 144.386 220.618 142.672 222.549 141.142C223.514 140.377 224.283 139.632 224.819 138.905C225.35 138.183 225.709 137.4 225.709 136.58H223.709ZM213.125 144.507C205.908 148.255 199.99 150.061 195.327 150.061V152.061C200.458 152.061 206.713 150.09 214.047 146.282L213.125 144.507ZM233.889 135.531L233.261 136.309L233.27 136.316L233.279 136.324L233.889 135.531ZM246.691 89.9891L245.972 89.2938L245.968 89.2981L246.691 89.9891ZM287.826 73.4094L287.145 74.1422L287.172 74.1673L287.201 74.1903L287.826 73.4094ZM272.295 102.791L271.777 101.936L271.776 101.937L272.295 102.791ZM241.444 112.445L241.761 111.497L240.973 111.234L240.57 111.96L241.444 112.445ZM275.653 121.26L275.027 120.48L275.017 120.488L275.006 120.497L275.653 121.26ZM297.48 99.4333L298.267 100.049L298.274 100.041L298.28 100.033L297.48 99.4333ZM300.418 101.742L301.215 102.345L301.221 102.338L301.227 102.33L300.418 101.742ZM287.826 116.013L288.521 116.731L287.826 116.013ZM273.345 127.976L272.77 127.157L272.763 127.162L272.756 127.167L273.345 127.976ZM268.098 100.273L268.627 101.122L268.649 101.107L268.671 101.092L268.098 100.273ZM276.283 93.7668L276.95 94.512L276.952 94.5101L276.283 93.7668ZM282.999 86.2115L282.188 85.626L282.177 85.6412L282.167 85.6568L282.999 86.2115ZM263.691 86.2115L263.05 85.4432L263.045 85.4481L263.691 86.2115ZM253.197 96.2852L253.932 96.9635L253.932 96.9635L253.197 96.2852ZM244.592 107.828L243.73 107.322L243.106 108.387L244.276 108.777L244.592 107.828ZM246.062 138.728C241.811 138.728 237.966 137.406 234.499 134.738L233.279 136.324C237.087 139.253 241.358 140.728 246.062 140.728V138.728ZM234.517 134.753C231.119 132.008 229.432 128.449 229.432 123.988H227.432C227.432 129.041 229.383 133.177 233.261 136.309L234.517 134.753ZM229.432 123.988C229.432 114.449 235.294 103.358 247.414 90.6802L245.968 89.2981C233.744 102.085 227.432 113.659 227.432 123.988H229.432ZM247.41 90.6844C259.816 77.8601 270.69 71.6811 280.06 71.6811V69.6811C269.843 69.6811 258.471 76.3741 245.972 89.2938L247.41 90.6844ZM280.06 71.6811C283.08 71.6811 285.408 72.5288 287.145 74.1422L288.506 72.6766C286.326 70.6522 283.476 69.6811 280.06 69.6811V71.6811ZM287.201 74.1903C289.081 75.6941 289.974 77.5136 289.974 79.7055H291.974C291.974 76.8606 290.768 74.4826 288.45 72.6285L287.201 74.1903ZM289.974 79.7055C289.974 86.9741 284.181 94.4101 271.777 101.936L272.814 103.646C285.314 96.0616 291.974 88.1072 291.974 79.7055H289.974ZM271.776 101.937C260.781 108.617 251.667 111.865 244.383 111.865V113.865C252.209 113.865 261.703 110.397 272.815 103.646L271.776 101.937ZM244.383 111.865C243.344 111.865 242.475 111.735 241.761 111.497L241.128 113.394C242.092 113.715 243.183 113.865 244.383 113.865V111.865ZM240.57 111.96C238.392 115.881 237.296 120.035 237.296 124.408H239.296C239.296 120.386 240.3 116.565 242.319 112.931L240.57 111.96ZM237.296 124.408C237.296 128.185 238.185 131.205 240.139 133.279C242.104 135.364 244.982 136.321 248.58 136.321V134.321C245.322 134.321 243.058 133.46 241.595 131.907C240.121 130.343 239.296 127.906 239.296 124.408H237.296ZM248.58 136.321C255.962 136.321 265.228 131.413 276.3 122.022L275.006 120.497C263.972 129.855 255.19 134.321 248.58 134.321V136.321ZM276.279 122.039C284.867 115.141 292.199 107.812 298.267 100.049L296.692 98.8174C290.728 106.445 283.509 113.667 275.027 120.48L276.279 122.039ZM298.28 100.033C298.878 99.2358 299.407 98.6866 299.864 98.3444C300.322 98.0006 300.639 97.9148 300.838 97.9148V95.9148C300.056 95.9148 299.324 96.2488 298.664 96.7445C298 97.2418 297.341 97.9518 296.68 98.8333L298.28 100.033ZM300.838 97.9148C301.103 97.9148 301.119 97.9806 301.075 97.9368C301.031 97.8929 301.097 97.9085 301.097 98.1741H303.097C303.097 97.6002 302.953 96.9861 302.489 96.5225C302.026 96.059 301.411 95.9148 300.838 95.9148V97.9148ZM301.097 98.1741C301.097 98.3867 301.021 98.7408 300.772 99.2698C300.528 99.7883 300.147 100.415 299.609 101.154L301.227 102.33C301.808 101.53 302.266 100.792 302.582 100.121C302.893 99.4611 303.097 98.8009 303.097 98.1741H301.097ZM299.62 101.138C295.732 106.276 291.569 110.994 287.13 115.295L288.521 116.731C293.037 112.357 297.268 107.561 301.215 102.345L299.62 101.138ZM287.13 115.295C282.691 119.595 277.904 123.549 272.77 127.157L273.92 128.794C279.139 125.126 284.006 121.106 288.521 116.731L287.13 115.295ZM272.756 127.167C262.035 134.965 253.155 138.728 246.062 138.728V140.728C253.799 140.728 263.108 136.657 273.933 128.784L272.756 127.167ZM247.321 109.248C252.927 109.248 260.053 106.463 268.627 101.122L267.569 99.424C259.074 104.716 252.347 107.248 247.321 107.248V109.248ZM268.671 101.092C271.504 99.1094 274.263 96.9159 276.95 94.512L275.616 93.0215C272.986 95.3747 270.289 97.5185 267.524 99.4535L268.671 101.092ZM276.952 94.5101C279.798 91.9488 282.096 89.3685 283.831 86.7662L282.167 85.6568C280.544 88.0914 278.364 90.5479 275.614 93.0235L276.952 94.5101ZM283.809 86.797C285.685 84.2005 286.727 81.7554 286.727 79.4956H284.727C284.727 81.1534 283.95 83.1855 282.188 85.626L283.809 86.797ZM286.727 79.4956C286.727 78.262 286.199 77.2475 285.151 76.5991C284.183 75.9998 282.859 75.7673 281.32 75.7673V77.7673C282.718 77.7673 283.598 77.9896 284.099 78.2997C284.521 78.5608 284.727 78.9104 284.727 79.4956H286.727ZM281.32 75.7673C278.987 75.7673 276.299 76.6362 273.292 78.2469C270.273 79.8641 266.858 82.2702 263.05 85.4433L264.331 86.9797C268.078 83.8566 271.379 81.5407 274.237 80.0098C277.106 78.4725 279.455 77.7673 281.32 77.7673V75.7673ZM263.045 85.4481C259.374 88.5537 255.847 91.9402 252.462 95.607L253.932 96.9635C257.263 93.3548 260.731 90.0254 264.337 86.9749L263.045 85.4481ZM252.462 95.607C249.058 99.2947 246.146 103.2 243.73 107.322L245.455 108.334C247.795 104.341 250.62 100.551 253.932 96.9635L252.462 95.607ZM244.276 108.777C245.228 109.094 246.245 109.248 247.321 109.248V107.248C246.437 107.248 245.636 107.122 244.909 106.879L244.276 108.777ZM334.802 134.272L333.978 134.838L333.987 134.851L333.996 134.863L334.802 134.272ZM340.888 100.063L340.037 99.5388L340.033 99.5446L340.888 100.063ZM354.32 78.2364L355.172 78.7605L353.728 77.4308L354.32 78.2364ZM325.988 104.47L326.731 105.139L326.733 105.136L325.988 104.47ZM317.383 114.334L316.622 113.686L316.615 113.694L316.608 113.702L317.383 114.334ZM307.099 127.346L306.307 126.735L306.305 126.738L307.099 127.346ZM293.248 134.691L292.426 135.261L292.436 135.276L292.448 135.291L293.248 134.691ZM292.408 123.778L293.381 124.01L293.383 124L292.408 123.778ZM294.927 115.803L295.843 116.204L295.847 116.194L295.851 116.184L294.927 115.803ZM297.865 108.877L296.96 108.452L296.954 108.464L296.949 108.477L297.865 108.877ZM301.013 101.952L301.929 102.353L300.289 101.262L301.013 101.952ZM288.421 115.174L289.128 115.881L289.137 115.872L289.145 115.863L288.421 115.174ZM285.902 117.692L285.195 116.985L285.195 116.985L285.902 117.692ZM281.915 117.272L282.747 117.827L282.843 117.683L282.885 117.515L281.915 117.272ZM283.174 115.383L282.467 114.676L282.467 114.676L283.174 115.383ZM289.68 108.668L290.408 109.353L290.408 109.353L289.68 108.668ZM296.606 100.483L295.832 99.8494L295.823 99.8602L295.814 99.8712L296.606 100.483ZM302.272 93.5569L303.046 94.1902L303.053 94.1818L303.06 94.1732L302.272 93.5569ZM310.457 83.2733L309.694 82.6274L309.686 82.6361L309.679 82.645L310.457 83.2733ZM319.062 73.1995L319.819 73.8532L319.849 73.8183L319.876 73.7808L319.062 73.1995ZM321.37 71.3107L321.687 72.2594L321.754 72.2369L321.818 72.2051L321.37 71.3107ZM328.086 77.6068L328.896 78.1942L328.944 78.1276L328.981 78.054L328.086 77.6068ZM305.42 117.272L304.457 117.005L303.444 120.663L306.127 117.979L305.42 117.272ZM344.456 80.7549L345.094 81.5249L345.095 81.524L344.456 80.7549ZM370.69 69.4219L370.16 70.2699L370.182 70.2835L370.204 70.296L370.69 69.4219ZM372.369 75.0884L373.288 75.4823L373.304 75.4441L373.317 75.4046L372.369 75.0884ZM363.764 86.8411L364.537 87.4758L364.546 87.465L364.554 87.4539L363.764 86.8411ZM355.159 97.5445L354.372 96.9281L354.363 96.939L354.355 96.9501L355.159 97.5445ZM349.283 105.939L348.444 105.396L348.442 105.398L349.283 105.939ZM343.617 117.062L344.553 117.414L344.557 117.401L343.617 117.062ZM342.148 129.235L341.167 129.431L341.167 129.431L342.148 129.235ZM359.777 122.939L360.409 123.713L360.421 123.704L360.433 123.693L359.777 122.939ZM368.801 114.544L369.508 115.251L369.517 115.242L369.525 115.234L368.801 114.544ZM376.776 105.939L376.069 105.232L376.05 105.251L376.033 105.27L376.776 105.939ZM379.504 102.791L380.278 103.424L380.292 103.408L380.304 103.391L379.504 102.791ZM381.603 104.89L380.709 104.443L380.698 104.463L380.689 104.484L381.603 104.89ZM379.714 107.828L379.007 107.121L378.978 107.15L378.951 107.182L379.714 107.828ZM372.789 115.383L372.066 114.692L372.058 114.701L372.05 114.709L372.789 115.383ZM362.715 125.247L362.05 124.5L362.043 124.506L362.036 124.512L362.715 125.247ZM352.011 133.852L352.574 134.679L352.574 134.679L352.011 133.852ZM342.777 136.42C339.166 136.42 336.885 135.42 335.608 133.68L333.996 134.863C335.798 137.32 338.833 138.42 342.777 138.42V136.42ZM335.626 133.705C334.222 131.662 333.493 129.141 333.493 126.087H331.493C331.493 129.469 332.304 132.404 333.978 134.838L335.626 133.705ZM333.493 126.087C333.493 118.205 336.211 109.709 341.743 100.581L340.033 99.5446C334.372 108.885 331.493 117.738 331.493 126.087H333.493ZM341.74 100.587L355.172 78.7605L353.468 77.7123L340.037 99.5388L341.74 100.587ZM353.728 77.4308C344.148 84.4744 334.654 93.2683 325.242 103.804L326.733 105.136C336.07 94.685 345.463 85.9898 354.912 79.0421L353.728 77.4308ZM325.244 103.801C322.718 106.608 319.844 109.903 316.622 113.686L318.144 114.983C321.358 111.21 324.22 107.929 326.731 105.139L325.244 103.801ZM316.608 113.702C313.523 117.488 310.089 121.833 306.307 126.735L307.891 127.957C311.665 123.065 315.087 118.735 318.158 114.966L316.608 113.702ZM306.305 126.738C303.792 130.019 301.802 132.457 300.328 134.069C299.588 134.877 298.999 135.454 298.554 135.822C298.33 136.006 298.165 136.119 298.053 136.181C297.921 136.254 297.946 136.21 298.075 136.21V138.21C298.449 138.21 298.782 138.063 299.021 137.931C299.281 137.787 299.551 137.592 299.826 137.365C300.377 136.91 301.039 136.255 301.803 135.419C303.337 133.742 305.369 131.249 307.893 127.954L306.305 126.738ZM298.075 136.21C296.456 136.21 295.134 135.539 294.048 134.091L292.448 135.291C293.88 137.201 295.776 138.21 298.075 138.21V136.21ZM294.07 134.122C292.865 132.381 292.359 130.973 292.359 129.864H290.359C290.359 131.554 291.113 133.364 292.426 135.261L294.07 134.122ZM292.359 129.864C292.359 128.879 292.679 126.959 293.381 124.01L291.436 123.547C290.738 126.474 290.359 128.611 290.359 129.864H292.359ZM293.383 124C294.073 120.966 294.895 118.371 295.843 116.204L294.011 115.402C293 117.713 292.143 120.434 291.433 123.557L293.383 124ZM295.851 116.184C296.828 113.812 297.805 111.51 298.781 109.278L296.949 108.477C295.966 110.722 294.984 113.037 294.002 115.422L295.851 116.184ZM298.77 109.303C299.893 106.917 300.946 104.6 301.929 102.353L300.097 101.551C299.121 103.781 298.076 106.081 296.96 108.452L298.77 109.303ZM300.289 101.262L287.697 114.484L289.145 115.863L301.737 102.641L300.289 101.262ZM287.714 114.466C287.434 114.746 286.594 115.586 285.195 116.985L286.609 118.399C288.009 117 288.848 116.16 289.128 115.881L287.714 114.466ZM285.195 116.985C284.525 117.655 283.956 118.123 283.484 118.418C283 118.72 282.698 118.791 282.544 118.791V120.791C283.23 120.791 283.908 120.511 284.544 120.114C285.191 119.71 285.88 119.128 286.609 118.399L285.195 116.985ZM282.544 118.791C282.486 118.791 282.482 118.781 282.508 118.793C282.539 118.807 282.563 118.83 282.571 118.842C282.575 118.848 282.555 118.821 282.533 118.733C282.512 118.643 282.495 118.51 282.495 118.322H280.495C280.495 118.9 280.593 119.514 280.944 120.005C281.339 120.558 281.932 120.791 282.544 120.791V118.791ZM282.495 118.322C282.495 118.345 282.49 118.316 282.529 118.221C282.566 118.128 282.633 117.997 282.747 117.827L281.083 116.718C280.77 117.187 280.495 117.741 280.495 118.322H282.495ZM282.885 117.515C282.96 117.216 283.229 116.742 283.881 116.091L282.467 114.676C281.72 115.423 281.15 116.209 280.945 117.03L282.885 117.515ZM283.881 116.091C285.988 113.984 288.163 111.738 290.408 109.353L288.952 107.982C286.719 110.354 284.558 112.585 282.467 114.676L283.881 116.091ZM290.408 109.353C292.673 106.947 295.002 104.193 297.397 101.094L295.814 99.8712C293.452 102.928 291.165 105.631 288.952 107.982L290.408 109.353ZM297.38 101.116C298.639 99.5768 300.528 97.2683 303.046 94.1902L301.498 92.9237C298.98 96.0018 297.091 98.3103 295.832 99.8494L297.38 101.116ZM303.06 94.1732C305.575 90.9598 308.3 87.5359 311.235 83.9016L309.679 82.645C306.738 86.2861 304.007 89.718 301.485 92.9406L303.06 94.1732ZM311.221 83.9192C314.297 80.2836 317.163 76.9283 319.819 73.8532L318.305 72.5459C315.644 75.6269 312.774 78.9875 309.694 82.6274L311.221 83.9192ZM319.876 73.7808C320.496 72.9125 321.109 72.4521 321.687 72.2594L321.054 70.362C319.953 70.729 319.027 71.5278 318.248 72.6183L319.876 73.7808ZM321.818 72.2051C322.222 72.0032 322.537 71.8626 322.771 71.7748C323.037 71.6752 323.102 71.6811 323.049 71.6811V69.6811C322.717 69.6811 322.363 69.792 322.069 69.9022C321.743 70.0242 321.359 70.1985 320.923 70.4163L321.818 72.2051ZM323.049 71.6811C324.836 71.6811 325.992 72.0332 326.685 72.5723C327.331 73.0742 327.716 73.8499 327.716 75.0884H329.716C329.716 73.3886 329.157 71.9608 327.913 70.9936C326.717 70.0635 325.04 69.6811 323.049 69.6811V71.6811ZM327.716 75.0884C327.716 75.7551 327.55 76.4424 327.192 77.1596L328.981 78.054C329.462 77.0923 329.716 76.1006 329.716 75.0884H327.716ZM327.277 77.0194C314.681 94.3736 307.027 107.722 304.457 117.005L306.384 117.539C308.85 108.634 316.307 95.5385 328.896 78.1942L327.277 77.0194ZM306.127 117.979C322.35 101.757 335.336 89.6102 345.094 81.5249L343.818 79.9848C333.988 88.1295 320.951 100.328 304.713 116.565L306.127 117.979ZM345.095 81.524C350.041 77.414 354.244 74.3565 357.71 72.3316C361.21 70.2871 363.832 69.3725 365.653 69.3725V67.3725C363.276 67.3725 360.267 68.5217 356.701 70.6046C353.102 72.7072 348.805 75.8408 343.817 79.9857L345.095 81.524ZM365.653 69.3725C367.82 69.3725 369.275 69.7169 370.16 70.2699L371.22 68.5739C369.866 67.7277 367.963 67.3725 365.653 67.3725V69.3725ZM370.204 70.296C371.034 70.7572 371.579 71.665 371.579 73.4094H373.579C373.579 71.2362 372.864 69.4857 371.175 68.5477L370.204 70.296ZM371.579 73.4094C371.579 74.0564 371.512 74.4959 371.42 74.7721L373.317 75.4046C373.505 74.8414 373.579 74.1616 373.579 73.4094H371.579ZM371.45 74.6944C371.387 74.8409 371.181 75.1958 370.765 75.8164C370.364 76.4124 369.809 77.1959 369.096 78.1704C367.67 80.1181 365.63 82.803 362.974 86.2283L364.554 87.4539C367.215 84.0234 369.267 81.3217 370.71 79.3518C371.43 78.3675 372.003 77.5595 372.425 76.9313C372.83 76.3276 373.141 75.8256 373.288 75.4823L371.45 74.6944ZM362.991 86.2063C359.77 90.1286 356.896 93.7027 354.372 96.9281L355.947 98.1608C358.46 94.9502 361.323 91.3887 364.537 87.4758L362.991 86.2063ZM354.355 96.9501C351.969 100.179 349.997 102.995 348.444 105.396L350.123 106.483C351.647 104.127 353.593 101.346 355.964 98.1388L354.355 96.9501ZM348.442 105.398C345.892 109.364 343.966 113.14 342.676 116.724L344.557 117.401C345.786 113.989 347.637 110.349 350.124 106.48L348.442 105.398ZM342.68 116.711C341.398 120.13 340.728 123.124 340.728 125.667H342.728C342.728 123.453 343.317 120.71 344.553 117.413L342.68 116.711ZM340.728 125.667C340.728 126.735 340.879 127.994 341.167 129.431L343.128 129.039C342.856 127.678 342.728 126.558 342.728 125.667H340.728ZM341.167 129.431C341.338 130.285 341.704 131.042 342.347 131.577C342.992 132.114 343.799 132.334 344.666 132.334V130.334C344.133 130.334 343.822 130.203 343.627 130.041C343.43 129.877 343.237 129.583 343.128 129.039L341.167 129.431ZM344.666 132.334C346.531 132.334 348.776 131.535 351.343 130.109C353.933 128.67 356.957 126.531 360.409 123.713L359.144 122.164C355.741 124.942 352.818 127.001 350.371 128.361C347.901 129.733 346.018 130.334 344.666 130.334V132.334ZM360.433 123.693C363.667 120.881 366.692 118.067 369.508 115.251L368.094 113.837C365.313 116.617 362.322 119.4 359.12 122.184L360.433 123.693ZM369.525 115.234C372.329 112.289 374.994 109.414 377.519 106.608L376.033 105.27C373.521 108.061 370.869 110.922 368.077 113.854L369.525 115.234ZM377.483 106.646C378.082 106.047 379.02 104.962 380.278 103.424L378.73 102.158C377.47 103.698 376.589 104.712 376.069 105.232L377.483 106.646ZM380.304 103.391C380.928 102.56 381.412 101.961 381.763 101.578C381.941 101.384 382.063 101.269 382.136 101.211C382.173 101.182 382.175 101.184 382.148 101.199C382.134 101.206 382.009 101.273 381.813 101.273V99.2728C381.547 99.2728 381.337 99.366 381.222 99.4255C381.095 99.4922 380.981 99.5737 380.887 99.6493C380.697 99.8008 380.496 100.001 380.289 100.227C379.871 100.683 379.34 101.343 378.704 102.191L380.304 103.391ZM381.813 101.273C381.778 101.273 381.703 101.261 381.626 101.21C381.555 101.163 381.537 101.118 381.548 101.14C381.561 101.165 381.589 101.237 381.614 101.382C381.637 101.523 381.652 101.711 381.652 101.952H383.652C383.652 101.341 383.581 100.734 383.337 100.245C383.208 99.9867 383.016 99.7328 382.735 99.5456C382.448 99.3544 382.128 99.2728 381.813 99.2728V101.273ZM381.652 101.952C381.652 102.057 381.612 102.312 381.448 102.77C381.292 103.208 381.048 103.763 380.709 104.443L382.497 105.337C382.857 104.618 383.138 103.984 383.332 103.442C383.518 102.921 383.652 102.406 383.652 101.952H381.652ZM380.689 104.484C380.161 105.672 379.593 106.535 379.007 107.121L380.421 108.535C381.235 107.722 381.926 106.627 382.517 105.296L380.689 104.484ZM378.951 107.182C377.432 108.978 375.14 111.479 372.066 114.692L373.511 116.075C376.593 112.852 378.919 110.316 380.478 108.474L378.951 107.182ZM372.05 114.709C369.139 117.898 365.806 121.161 362.05 124.5L363.379 125.995C367.179 122.617 370.562 119.305 373.527 116.058L372.05 114.709ZM362.036 124.512C358.429 127.842 354.9 130.679 351.449 133.025L352.574 134.679C356.119 132.268 359.725 129.368 363.393 125.982L362.036 124.512ZM351.449 133.025C348.027 135.352 345.148 136.42 342.777 136.42V138.42C345.723 138.42 349 137.109 352.574 134.679L351.449 133.025ZM377.053 116.433L376.142 116.021L376.139 116.028L376.136 116.035L377.053 116.433ZM385.238 102.791L386.044 103.384L384.551 102.064L385.238 102.791ZM381.46 106.359L380.774 105.632L380.774 105.632L381.46 106.359ZM372.856 115.383L373.563 116.091L373.584 116.069L373.605 116.046L372.856 115.383ZM371.806 111.606L371.045 110.957L371.025 110.981L371.006 111.006L371.806 111.606ZM400.768 77.6068L400.013 76.9518L400.007 76.9583L400.768 77.6068ZM416.299 77.8167L416.987 78.5426L416.996 78.5333L417.006 78.5238L416.299 77.8167ZM406.435 88.52L405.672 87.8731L405.667 87.8799L405.661 87.8868L406.435 88.52ZM386.078 118.741L385.188 118.284L385.183 118.294L386.078 118.741ZM389.645 133.012L389.962 133.961L389.989 133.952L390.017 133.941L389.645 133.012ZM398.04 128.185L398.602 129.012L398.614 129.005L398.624 128.997L398.04 128.185ZM410.632 116.643L409.925 115.936L409.915 115.945L409.906 115.955L410.632 116.643ZM417.348 109.087L418.104 109.742L418.104 109.742L417.348 109.087ZM432.039 91.0385L431.26 90.4118L431.253 90.4207L432.039 91.0385ZM461.001 76.3476L460.007 76.458L460.013 76.5117L460.025 76.5645L461.001 76.3476ZM452.187 88.7299L451.436 88.0693L451.426 88.081L451.416 88.093L452.187 88.7299ZM435.817 109.507L434.997 108.934L434.991 108.942L435.817 109.507ZM438.755 129.864L439.275 130.719L439.285 130.712L438.755 129.864ZM449.248 122.099L449.894 122.863L449.903 122.856L449.911 122.848L449.248 122.099ZM459.742 112.235L459.035 111.528L459.035 111.528L459.742 112.235ZM468.766 102.581L468.007 101.931L468.007 101.931L468.766 102.581ZM472.334 103.631L471.364 103.388L471.364 103.388L472.334 103.631ZM471.075 105.52L470.368 104.812L470.347 104.833L470.327 104.855L471.075 105.52ZM462.47 114.964L463.191 115.657L463.198 115.65L463.204 115.643L462.47 114.964ZM451.137 125.877L451.805 126.621L451.805 126.621L451.137 125.877ZM439.385 134.901L438.852 134.055L438.852 134.055L439.385 134.901ZM421.336 135.951L420.728 136.745L420.743 136.757L420.759 136.768L421.336 135.951ZM419.237 119.371L420.19 119.674L420.194 119.662L419.237 119.371ZM421.546 111.186L422.516 111.429L420.785 110.536L421.546 111.186ZM404.126 128.815L403.499 128.036L403.488 128.045L404.126 128.815ZM391.744 137L391.359 136.077L391.343 136.084L391.327 136.091L391.744 137ZM383.769 138.309C380.846 138.309 378.81 137.395 377.471 135.698C376.096 133.957 375.325 131.229 375.325 127.346H373.325C373.325 131.438 374.128 134.692 375.901 136.938C377.71 139.228 380.396 140.309 383.769 140.309V138.309ZM375.325 127.346C375.325 124.454 376.182 120.958 377.971 116.83L376.136 116.035C374.286 120.302 373.325 124.081 373.325 127.346H375.325ZM377.965 116.844C379.889 112.584 382.578 108.097 386.044 103.384L384.432 102.199C380.903 106.999 378.135 111.607 376.142 116.021L377.965 116.844ZM385.238 102.791C384.551 102.064 384.551 102.064 384.551 102.064C384.551 102.064 384.551 102.064 384.551 102.064C384.551 102.064 384.551 102.064 384.551 102.064C384.551 102.064 384.551 102.064 384.551 102.064C384.551 102.065 384.551 102.064 384.551 102.065C384.549 102.067 384.551 102.064 384.549 102.066C384.548 102.067 384.549 102.067 384.548 102.068C384.539 102.076 384.548 102.067 384.537 102.078C384.53 102.084 384.509 102.104 384.492 102.12C384.478 102.134 384.443 102.167 384.419 102.19C384.393 102.214 384.351 102.253 384.315 102.287C384.305 102.297 384.296 102.305 384.285 102.316C384.247 102.352 384.291 102.31 384.253 102.346C384.238 102.36 384.234 102.364 384.219 102.379C384.202 102.395 384.218 102.379 384.201 102.395C384.198 102.398 384.185 102.41 384.183 102.413C384.091 102.499 384.122 102.47 384.02 102.566C383.993 102.592 384.003 102.582 383.975 102.609C383.949 102.633 383.978 102.606 383.952 102.631C383.95 102.632 383.948 102.634 383.946 102.636C383.944 102.638 383.942 102.64 383.94 102.642C383.938 102.644 383.936 102.645 383.934 102.647C383.932 102.649 383.93 102.651 383.928 102.653C383.926 102.655 383.833 102.743 383.828 102.747C383.804 102.771 383.827 102.748 383.802 102.772C383.799 102.775 383.792 102.781 383.789 102.784C383.787 102.786 383.785 102.788 383.782 102.79C383.78 102.793 383.778 102.795 383.776 102.797C383.754 102.818 383.771 102.801 383.749 102.822C383.691 102.877 383.779 102.793 383.721 102.848C383.714 102.855 383.673 102.894 383.665 102.901C383.663 102.904 383.66 102.906 383.658 102.908C383.656 102.91 383.653 102.913 383.651 102.915C383.648 102.917 383.646 102.919 383.644 102.922C383.641 102.924 383.639 102.926 383.636 102.928C383.631 102.933 383.612 102.951 383.607 102.956C383.528 103.031 383.445 103.109 383.356 103.193C383.302 103.244 383.393 103.158 383.34 103.209C383.329 103.219 383.333 103.215 383.323 103.225C383.32 103.227 383.317 103.23 383.314 103.233C383.311 103.235 383.309 103.238 383.306 103.241C383.249 103.294 383.346 103.203 383.289 103.257C383.284 103.262 383.26 103.284 383.254 103.289C383.238 103.305 383.236 103.306 383.22 103.322C383.203 103.337 383.095 103.44 383.076 103.458C382.938 103.588 382.914 103.611 382.766 103.751C382.662 103.849 382.706 103.807 382.6 103.907C382.552 103.953 382.605 103.902 382.557 103.948C382.536 103.968 382.535 103.968 382.514 103.988C382.463 104.036 382.522 103.981 382.471 104.029C382.421 104.076 382.498 104.003 382.449 104.05C382.417 104.08 382.458 104.041 382.427 104.071C382.389 104.107 382.375 104.12 382.337 104.156C382.279 104.21 382.304 104.187 382.246 104.242C382.196 104.289 382.203 104.282 382.153 104.33C382.132 104.349 382.126 104.355 382.105 104.374C382.101 104.378 382.097 104.382 382.093 104.386C382.089 104.389 382.085 104.393 382.082 104.397C382.077 104.401 382.062 104.415 382.058 104.419C382.023 104.452 381.996 104.478 381.961 104.511C381.943 104.528 381.881 104.586 381.862 104.604C381.858 104.608 381.854 104.612 381.85 104.616C381.845 104.62 381.841 104.624 381.837 104.628C381.833 104.632 381.829 104.636 381.825 104.64C381.82 104.643 381.816 104.647 381.812 104.651C381.808 104.655 381.804 104.659 381.799 104.663C381.795 104.667 381.791 104.671 381.787 104.675C381.783 104.679 381.778 104.683 381.774 104.687C381.77 104.691 381.766 104.695 381.762 104.699C381.757 104.703 381.753 104.707 381.749 104.711C381.745 104.715 381.74 104.719 381.736 104.723C381.732 104.727 381.728 104.731 381.723 104.735C381.719 104.739 381.715 104.743 381.711 104.747C381.706 104.751 381.702 104.755 381.698 104.759C381.694 104.763 381.689 104.767 381.685 104.771C381.649 104.806 381.695 104.762 381.659 104.796C381.632 104.822 381.635 104.819 381.607 104.845C381.603 104.849 381.599 104.853 381.594 104.857C381.59 104.861 381.586 104.865 381.581 104.869C381.577 104.874 381.572 104.878 381.568 104.882C381.564 104.886 381.559 104.89 381.555 104.894C381.511 104.936 381.573 104.877 381.529 104.919C381.488 104.958 381.543 104.906 381.502 104.944C381.488 104.958 381.49 104.955 381.476 104.969C381.471 104.973 381.467 104.978 381.462 104.982C381.458 104.986 381.453 104.99 381.449 104.994C381.39 105.05 381.292 105.142 381.231 105.2C381.227 105.204 381.222 105.209 381.217 105.213C381.213 105.217 381.208 105.222 381.204 105.226C381.199 105.23 381.194 105.235 381.19 105.239C381.185 105.244 381.18 105.248 381.176 105.252C381.143 105.284 381.181 105.247 381.148 105.279C381.143 105.283 381.138 105.288 381.134 105.292C381.129 105.296 381.124 105.301 381.12 105.305C381.115 105.31 381.11 105.314 381.106 105.319C381.101 105.323 381.096 105.328 381.091 105.332C381.087 105.336 381.082 105.341 381.077 105.345C381.073 105.35 381.068 105.354 381.063 105.359C381.058 105.363 381.054 105.368 381.049 105.372C381.044 105.377 381.039 105.381 381.035 105.386C380.994 105.424 381.047 105.374 381.006 105.412C381.001 105.417 380.997 105.421 380.992 105.426C380.987 105.43 380.982 105.435 380.978 105.44C380.973 105.444 380.968 105.449 380.963 105.453C380.958 105.458 380.954 105.462 380.949 105.467C380.893 105.519 380.947 105.468 380.891 105.521C380.886 105.526 380.881 105.531 380.876 105.535C380.872 105.54 380.867 105.544 380.862 105.549C380.842 105.568 380.853 105.557 380.833 105.576C380.796 105.611 380.81 105.597 380.774 105.632L382.147 107.086C382.761 106.507 383.344 105.956 383.8 105.525C383.834 105.493 383.81 105.516 383.844 105.484C383.895 105.435 383.836 105.49 383.887 105.442C383.925 105.406 383.871 105.458 383.909 105.422C383.913 105.419 383.916 105.415 383.92 105.412C383.923 105.408 383.927 105.405 383.93 105.402C383.952 105.382 383.952 105.381 383.973 105.361C384.044 105.294 384.071 105.269 384.139 105.205C384.181 105.165 384.178 105.168 384.219 105.129C384.249 105.101 384.269 105.082 384.298 105.055C384.316 105.037 384.433 104.927 384.449 104.912C384.458 104.903 384.513 104.851 384.522 104.843C384.55 104.816 384.529 104.836 384.558 104.809C384.58 104.788 384.553 104.814 384.575 104.793C384.592 104.777 384.577 104.791 384.593 104.776C384.615 104.755 384.641 104.731 384.662 104.711C384.677 104.696 384.715 104.661 384.729 104.647C384.818 104.563 384.902 104.485 384.98 104.41C385.264 104.142 385.562 103.861 385.689 103.741C385.731 103.701 385.759 103.675 385.792 103.644C385.827 103.611 385.841 103.598 385.866 103.574C385.921 103.522 385.864 103.575 385.91 103.532C385.916 103.527 385.918 103.525 385.921 103.522C385.922 103.52 385.923 103.52 385.924 103.519C385.924 103.519 385.924 103.519 385.924 103.519C385.924 103.519 385.924 103.519 385.924 103.519C385.924 103.519 385.924 103.518 385.924 103.518C385.924 103.518 385.925 103.518 385.925 103.518C385.925 103.518 385.925 103.518 385.925 103.518C385.925 103.518 385.925 103.518 385.925 103.518C385.925 103.518 385.925 103.518 385.238 102.791ZM380.774 105.632C378.227 108.037 375.337 111.069 372.107 114.721L373.605 116.046C376.81 112.422 379.657 109.438 382.147 107.086L380.774 105.632ZM372.149 114.676C371.789 115.036 371.349 115.223 370.757 115.223V117.223C371.844 117.223 372.803 116.85 373.563 116.091L372.149 114.676ZM370.757 115.223C370.72 115.223 370.733 115.217 370.774 115.234C370.795 115.243 370.82 115.256 370.845 115.275C370.871 115.294 370.892 115.315 370.908 115.336C370.941 115.377 370.943 115.4 370.936 115.375C370.929 115.348 370.918 115.285 370.918 115.174H368.918C368.918 115.63 369.005 116.158 369.347 116.585C369.723 117.055 370.257 117.223 370.757 117.223V115.223ZM370.918 115.174C370.918 115.077 370.977 114.785 371.274 114.225C371.554 113.694 371.993 113.024 372.606 112.206L371.006 111.006C370.361 111.867 369.855 112.63 369.506 113.289C369.173 113.918 368.918 114.57 368.918 115.174H370.918ZM372.568 112.254L401.53 78.2553L400.007 76.9583L371.045 110.957L372.568 112.254ZM401.524 78.2617C405.029 74.2175 408.761 72.3107 412.731 72.3107V70.3107C408.027 70.3107 403.783 72.6013 400.013 76.9519L401.524 78.2617ZM412.731 72.3107C414.237 72.3107 415.182 72.61 415.735 73.0426C416.241 73.4388 416.558 74.0576 416.558 75.0884H418.558C418.558 73.6007 418.07 72.3307 416.968 71.4676C415.911 70.641 414.443 70.3107 412.731 70.3107V72.3107ZM416.558 75.0884C416.558 75.748 416.286 76.4152 415.592 77.1096L417.006 78.5238C417.99 77.5392 418.558 76.3875 418.558 75.0884H416.558ZM415.611 77.0907C412.915 79.6449 409.6 83.2436 405.672 87.8731L407.197 89.167C411.105 84.5622 414.366 81.0253 416.987 78.5426L415.611 77.0907ZM405.661 87.8868C401.864 92.5277 398.139 97.5177 394.487 102.856L396.137 103.985C399.76 98.6905 403.451 93.7466 407.209 89.1533L405.661 87.8868ZM394.487 102.856C390.829 108.202 387.729 113.344 385.188 118.284L386.967 119.199C389.463 114.344 392.519 109.273 396.137 103.985L394.487 102.856ZM385.183 118.294C382.783 123.095 381.51 127.111 381.51 130.284H383.51C383.51 127.581 384.615 123.902 386.972 119.189L385.183 118.294ZM381.51 130.284C381.51 131.623 381.727 132.802 382.307 133.672C382.935 134.614 383.897 135.062 385.028 135.062V133.062C384.48 133.062 384.183 132.88 383.971 132.563C383.712 132.174 383.51 131.464 383.51 130.284H381.51ZM385.028 135.062C386.183 135.062 387.857 134.663 389.962 133.961L389.329 132.064C387.237 132.761 385.832 133.062 385.028 133.062V135.062ZM390.017 133.941C392.217 133.061 395.087 131.403 398.602 129.012L397.478 127.359C393.998 129.725 391.271 131.285 389.274 132.084L390.017 133.941ZM398.624 128.997C402.196 126.426 406.443 122.527 411.359 117.33L409.906 115.955C405.028 121.112 400.88 124.908 397.456 127.374L398.624 128.997ZM411.339 117.35C412.21 116.479 414.477 113.927 418.104 109.742L416.592 108.432C412.944 112.643 410.733 115.128 409.925 115.936L411.339 117.35ZM418.104 109.742C421.757 105.527 426.666 99.4959 432.825 91.6563L431.253 90.4207C425.1 98.2514 420.215 104.253 416.592 108.432L418.104 109.742ZM432.818 91.6651C438.265 84.892 442.745 79.8427 446.265 76.4951C448.026 74.82 449.523 73.5942 450.762 72.7932C452.031 71.9727 452.903 71.6811 453.446 71.6811V69.6811C452.309 69.6811 451.031 70.2377 449.676 71.1137C448.291 72.0092 446.693 73.328 444.887 75.0458C441.271 78.484 436.727 83.6134 431.26 90.4118L432.818 91.6651ZM453.446 71.6811C455.635 71.6811 457.175 72.1312 458.197 72.8977C459.191 73.6428 459.821 74.7822 460.007 76.458L461.995 76.2372C461.761 74.1353 460.923 72.4415 459.397 71.2977C457.901 70.1754 455.874 69.6811 453.446 69.6811V71.6811ZM460.025 76.5645C460.011 76.5001 460.035 76.5241 459.989 76.6976C459.946 76.8583 459.86 77.0852 459.711 77.3872C459.413 77.9912 458.914 78.7941 458.193 79.8077C456.754 81.8293 454.507 84.5797 451.436 88.0693L452.937 89.3905C456.023 85.8845 458.323 83.0733 459.822 80.9675C460.57 79.9173 461.138 79.0151 461.504 78.2723C461.688 77.9011 461.833 77.5442 461.922 77.2108C462.007 76.8903 462.062 76.5099 461.977 76.1307L460.025 76.5645ZM451.416 88.093C443.441 97.7467 437.961 104.7 434.997 108.934L436.636 110.08C439.549 105.919 444.982 99.0211 452.958 89.3668L451.416 88.093ZM434.991 108.942C429.526 116.93 426.632 123.378 426.632 128.185H428.632C428.632 124.038 431.194 118.034 436.642 110.072L434.991 108.942ZM426.632 128.185C426.632 129.807 426.903 131.2 427.593 132.212C428.329 133.292 429.449 133.803 430.78 133.803V131.803C430.012 131.803 429.558 131.543 429.245 131.085C428.886 130.558 428.632 129.642 428.632 128.185H426.632ZM430.78 133.803C433.156 133.803 436.008 132.707 439.275 130.719L438.235 129.01C435.066 130.939 432.601 131.803 430.78 131.803V133.803ZM439.285 130.712C442.691 128.584 446.227 125.966 449.894 122.863L448.602 121.336C444.994 124.389 441.535 126.948 438.225 129.016L439.285 130.712ZM449.911 122.848C453.564 119.617 457.076 116.315 460.449 112.942L459.035 111.528C455.692 114.871 452.209 118.145 448.586 121.35L449.911 122.848ZM460.449 112.942C463.96 109.431 466.987 106.194 469.526 103.232L468.007 101.931C465.509 104.845 462.519 108.044 459.035 111.528L460.449 112.942ZM469.526 103.232C470.277 102.355 470.864 102.112 471.285 102.112V100.112C470.026 100.112 468.934 100.849 468.007 101.931L469.526 103.232ZM471.285 102.112C471.55 102.112 471.566 102.178 471.522 102.134C471.478 102.09 471.544 102.106 471.544 102.371H473.544C473.544 101.798 473.4 101.183 472.936 100.72C472.473 100.256 471.859 100.112 471.285 100.112V102.112ZM471.544 102.371C471.544 102.522 471.5 102.843 471.364 103.388L473.304 103.873C473.448 103.299 473.544 102.78 473.544 102.371H471.544ZM471.364 103.388C471.289 103.687 471.02 104.16 470.368 104.812L471.782 106.227C472.529 105.479 473.099 104.694 473.304 103.873L471.364 103.388ZM470.327 104.855C468.095 107.367 465.232 110.509 461.736 114.284L463.204 115.643C466.704 111.863 469.577 108.709 471.822 106.184L470.327 104.855ZM461.749 114.271C458.27 117.889 454.51 121.51 450.47 125.132L451.805 126.621C455.879 122.969 459.675 119.314 463.191 115.657L461.749 114.271ZM450.47 125.132C446.445 128.74 442.573 131.712 438.852 134.055L439.917 135.748C443.752 133.333 447.714 130.289 451.805 126.621L450.47 125.132ZM438.852 134.055C435.137 136.394 432.112 137.469 429.73 137.469V139.469C432.666 139.469 436.077 138.166 439.917 135.748L438.852 134.055ZM429.73 137.469C426.696 137.469 424.105 136.681 421.912 135.134L420.759 136.768C423.324 138.578 426.329 139.469 429.73 139.469V137.469ZM421.943 135.156C419.82 133.533 418.768 131.382 418.768 128.605H416.768C416.768 131.985 418.094 134.731 420.728 136.745L421.943 135.156ZM418.768 128.605C418.768 125.635 419.24 122.659 420.19 119.674L418.284 119.068C417.275 122.239 416.768 125.419 416.768 128.605H418.768ZM420.194 119.662C421.176 116.435 421.951 113.689 422.516 111.429L420.575 110.943C420.021 113.16 419.257 115.871 418.28 119.08L420.194 119.662ZM420.785 110.536C414.23 118.208 408.469 124.033 403.499 128.036L404.754 129.594C409.858 125.482 415.709 119.555 422.306 111.836L420.785 110.536ZM403.488 128.045C398.62 132.079 394.582 134.734 391.359 136.077L392.129 137.923C395.622 136.468 399.839 133.666 404.764 129.585L403.488 128.045ZM391.327 136.091C388.005 137.614 385.507 138.309 383.769 138.309V140.309C385.949 140.309 388.768 139.464 392.161 137.909L391.327 136.091Z" fill="url(#paint0_linear_26_14)" fill-opacity="0.08"/>
<defs>
<linearGradient id="paint0_linear_26_14" x1="399.151" y1="-20" x2="32.1538" y2="88.8766" gradientUnits="userSpaceOnUse">
<stop stop-color="#FF6533"/>
<stop offset="1" stop-color="#FFA733"/>
</linearGradient>
</defs>
</svg>
