<svg width="160" height="34" viewBox="0 0 160 34" fill="none" xmlns="http://www.w3.org/2000/svg">
<path d="M5.84563 11.866C6.29973 11.094 6.99224 10.4469 7.92315 9.9247C8.87677 9.40248 10.0347 9.14137 11.3971 9.14137C12.714 9.14137 13.8946 9.39113 14.9391 9.89064C15.9835 10.3902 16.8122 11.06 17.4253 11.9001C18.0383 12.7401 18.5038 13.6711 18.8217 14.6928C19.1395 15.6918 19.2985 16.7363 19.2985 17.8261C19.2985 18.916 19.1395 19.9718 18.8217 20.9935C18.5038 21.9925 18.0383 22.9121 17.4253 23.7522C16.8122 24.5923 15.9835 25.2621 14.9391 25.7616C13.8946 26.2611 12.714 26.5109 11.3971 26.5109C9.33088 26.5109 7.70745 25.8978 6.52678 24.6717V33.4927H0.73695V9.65224H5.84563V11.866ZM12.4188 20.5848C13.0318 19.8128 13.3384 18.8933 13.3384 17.8261C13.3384 16.759 13.0318 15.8394 12.4188 15.0674C11.8285 14.2955 10.9657 13.9095 9.83039 13.9095C9.08112 13.9095 8.41132 14.1138 7.82098 14.5225C7.23064 14.9085 6.79925 15.3853 6.52678 15.9529V19.6993C6.79925 20.2669 7.23064 20.7551 7.82098 21.1638C8.41132 21.5498 9.08112 21.7428 9.83039 21.7428C10.9657 21.7428 11.8285 21.3568 12.4188 20.5848ZM27.8137 26H22.0239V9.65224H27.8137V26ZM28.2224 4.13487C28.2224 5.20201 27.9046 6.00805 27.2688 6.55297C26.6558 7.07519 25.8724 7.3363 24.9188 7.3363C23.9652 7.3363 23.1705 7.07519 22.5348 6.55297C21.9217 6.00805 21.6152 5.20201 21.6152 4.13487C21.6152 3.09043 21.9331 2.3071 22.5688 1.78488C23.2046 1.23995 23.9879 0.967488 24.9188 0.967488C25.8724 0.967488 26.6558 1.23995 27.2688 1.78488C27.9046 2.3071 28.2224 3.09043 28.2224 4.13487ZM31.0633 9.65224H44.8568V13.058L38.2495 21.2319H45.3336V26H30.5865V22.5942L37.2278 14.4203H31.0633V9.65224ZM47.8262 9.65224H61.6196V13.058L55.0124 21.2319H62.0964V26H47.3494V22.5942L53.9906 14.4203H47.8262V9.65224ZM80.3237 21.3341C80.3237 22.0152 80.6984 22.3558 81.4476 22.3558C81.6747 22.3558 81.8904 22.3218 82.0947 22.2536V25.8297C81.2319 26.1703 80.2556 26.3406 79.1658 26.3406C77.3494 26.3406 76.0552 25.7389 75.2832 24.5355C73.603 25.8524 71.7071 26.5109 69.5955 26.5109C67.9834 26.5109 66.6325 26.0568 65.5426 25.1486C64.4528 24.2403 63.9079 23.0143 63.9079 21.4703C63.9079 20.494 64.1236 19.6425 64.555 18.916C64.9864 18.1667 65.554 17.5991 66.2578 17.2131C66.9844 16.8271 67.7337 16.5433 68.5057 16.3616C69.3003 16.18 70.1291 16.0892 70.9919 16.0892C72.218 16.0892 73.3986 16.214 74.5339 16.4638V15.8848C74.5339 15.2718 74.2387 14.7836 73.6484 14.4203C73.0808 14.0343 72.2407 13.8414 71.1281 13.8414C69.4025 13.8414 67.4953 14.2614 65.4064 15.1015V10.2312C67.6315 9.50465 69.7545 9.14137 71.7752 9.14137C74.568 9.14137 76.6909 9.72035 78.144 10.8783C79.5972 12.0363 80.3237 14.0003 80.3237 16.7703V21.3341ZM69.868 20.9935C69.868 21.4476 70.0496 21.8336 70.4129 22.1515C70.7762 22.4466 71.253 22.5942 71.8433 22.5942C72.8651 22.5942 73.7619 22.3104 74.5339 21.7428V19.529C73.9209 19.3247 73.2284 19.2225 72.4564 19.2225C70.7308 19.2225 69.868 19.8128 69.868 20.9935ZM83.6063 14.3522C83.6063 12.5131 84.2761 11.1848 85.6157 10.3675C86.9553 9.55006 88.6582 9.14137 90.7244 9.14137C92.8587 9.14137 94.9135 9.60683 96.8889 10.5377V15.1355C96.1623 14.636 95.2541 14.2273 94.1643 13.9095C93.0971 13.5689 92.0867 13.3986 91.1331 13.3986C90.0887 13.3986 89.5664 13.6711 89.5664 14.216C89.5664 14.6247 89.8616 14.9653 90.4519 15.2377C91.0423 15.4875 91.7575 15.7259 92.5976 15.9529C93.4377 16.18 94.2778 16.4638 95.1179 16.8044C95.958 17.1223 96.6732 17.6558 97.2635 18.4051C97.8539 19.1544 98.149 20.0966 98.149 21.2319C98.149 24.7512 95.5493 26.5109 90.3498 26.5109C87.716 26.5109 85.5249 26.0114 83.7766 25.0123V20.4145C85.5249 21.5725 87.6138 22.1515 90.0433 22.1515C91.4737 22.1515 92.1889 21.879 92.1889 21.3341C92.1889 20.9481 91.8937 20.6302 91.3034 20.3805C90.7131 20.108 89.9978 19.8582 89.1578 19.6312C88.3177 19.4041 87.4776 19.1203 86.6375 18.7797C85.7974 18.4165 85.0822 17.8602 84.4918 17.1109C83.9015 16.3616 83.6063 15.4421 83.6063 14.3522ZM100.749 2.15951H106.538V10.8783C107.833 9.72035 109.343 9.14137 111.068 9.14137C113.202 9.14137 114.826 9.77712 115.938 11.0486C117.051 12.2974 117.607 13.8981 117.607 15.8508V26H111.817V16.6341C111.817 15.794 111.59 15.1583 111.136 14.7269C110.682 14.2955 110.08 14.0798 109.331 14.0798C108.219 14.0798 107.288 14.5566 106.538 15.5102V26H100.749V2.15951ZM122.709 24.2631C120.961 22.7418 120.087 20.5962 120.087 17.8261C120.087 15.0561 120.961 12.9218 122.709 11.4232C124.48 9.90199 126.671 9.14137 129.282 9.14137C131.893 9.14137 134.073 9.90199 135.821 11.4232C137.592 12.9218 138.478 15.0561 138.478 17.8261C138.478 20.5962 137.592 22.7418 135.821 24.2631C134.073 25.7616 131.893 26.5109 129.282 26.5109C126.671 26.5109 124.48 25.7616 122.709 24.2631ZM131.734 20.3805C132.257 19.6993 132.518 18.8479 132.518 17.8261C132.518 16.8044 132.257 15.9529 131.734 15.2718C131.212 14.5906 130.395 14.25 129.282 14.25C128.17 14.25 127.352 14.5906 126.83 15.2718C126.308 15.9529 126.047 16.8044 126.047 17.8261C126.047 18.8479 126.308 19.6993 126.83 20.3805C127.352 21.0616 128.17 21.4022 129.282 21.4022C130.395 21.4022 131.212 21.0616 131.734 20.3805ZM146.234 11.866C146.689 11.094 147.381 10.4469 148.312 9.9247C149.266 9.40248 150.424 9.14137 151.786 9.14137C153.103 9.14137 154.283 9.39113 155.328 9.89064C156.372 10.3902 157.201 11.06 157.814 11.9001C158.427 12.7401 158.893 13.6711 159.21 14.6928C159.528 15.6918 159.687 16.7363 159.687 17.8261C159.687 18.916 159.528 19.9718 159.21 20.9935C158.893 21.9925 158.427 22.9121 157.814 23.7522C157.201 24.5923 156.372 25.2621 155.328 25.7616C154.283 26.2611 153.103 26.5109 151.786 26.5109C149.72 26.5109 148.096 25.8978 146.916 24.6717V33.4927H141.126V9.65224H146.234V11.866ZM152.808 20.5848C153.421 19.8128 153.727 18.8933 153.727 17.8261C153.727 16.759 153.421 15.8394 152.808 15.0674C152.217 14.2955 151.354 13.9095 150.219 13.9095C149.47 13.9095 148.8 14.1138 148.21 14.5225C147.619 14.9085 147.188 15.3853 146.916 15.9529V19.6993C147.188 20.2669 147.619 20.7551 148.21 21.1638C148.8 21.5498 149.47 21.7428 150.219 21.7428C151.354 21.7428 152.217 21.3568 152.808 20.5848Z" fill="url(#paint0_linear_9_7)"/>
<defs>
<linearGradient id="paint0_linear_9_7" x1="138.504" y1="-2.00001" x2="40.215" y2="60.8784" gradientUnits="userSpaceOnUse">
<stop stop-color="#FF6432"/>
<stop offset="1" stop-color="#FFA228"/>
</linearGradient>
</defs>
</svg>
