<svg width="140" height="29" viewBox="0 0 140 29" fill="none" xmlns="http://www.w3.org/2000/svg">
<path d="M5.00049 9.61094C5.39853 8.93426 6.00554 8.36705 6.82153 7.9093C7.65742 7.45156 8.67243 7.22268 9.86655 7.22268C11.0209 7.22268 12.0558 7.4416 12.9713 7.87945C13.8868 8.3173 14.6132 8.90441 15.1506 9.64079C15.6879 10.3772 16.0959 11.1932 16.3745 12.0887C16.6532 12.9644 16.7925 13.8799 16.7925 14.8352C16.7925 15.7905 16.6532 16.716 16.3745 17.6116C16.0959 18.4873 15.6879 19.2933 15.1506 20.0297C14.6132 20.7661 13.8868 21.3532 12.9713 21.791C12.0558 22.2289 11.0209 22.4478 9.86655 22.4478C8.05546 22.4478 6.63246 21.9104 5.59755 20.8357V28.5677H0.522512V7.67048H5.00049V9.61094ZM10.7621 17.2533C11.2995 16.5767 11.5682 15.7706 11.5682 14.8352C11.5682 13.8998 11.2995 13.0938 10.7621 12.4171C10.2447 11.7405 9.48841 11.4021 8.49331 11.4021C7.83654 11.4021 7.24943 11.5812 6.73197 11.9395C6.21452 12.2778 5.83638 12.6958 5.59755 13.1933V16.4772C5.83638 16.9747 6.21452 17.4026 6.73197 17.7609C7.24943 18.0992 7.83654 18.2684 8.49331 18.2684C9.48841 18.2684 10.2447 17.93 10.7621 17.2533ZM24.2565 22H19.1814V7.67048H24.2565V22ZM24.6147 2.83427C24.6147 3.76967 24.3361 4.47619 23.7788 4.95384C23.2415 5.41159 22.5548 5.64046 21.719 5.64046C20.8831 5.64046 20.1865 5.41159 19.6292 4.95384C19.0919 4.47619 18.8232 3.76967 18.8232 2.83427C18.8232 1.91877 19.1018 1.23215 19.6591 0.774398C20.2164 0.296747 20.903 0.0579221 21.719 0.0579221C22.5548 0.0579221 23.2415 0.296747 23.7788 0.774398C24.3361 1.23215 24.6147 1.91877 24.6147 2.83427ZM27.1049 7.67048H39.1954V10.6558L33.4039 17.8206H39.6134V22H26.6869V19.0147L32.5083 11.8499H27.1049V7.67048ZM41.7982 7.67048H53.8888V10.6558L48.0973 17.8206H54.3067V22H41.3803V19.0147L47.2017 11.8499H41.7982V7.67048ZM70.2838 17.9101C70.2838 18.5072 70.6122 18.8057 71.2689 18.8057C71.4679 18.8057 71.657 18.7759 71.8361 18.7162V21.8507C71.0799 22.1493 70.2241 22.2985 69.2688 22.2985C67.6766 22.2985 66.5422 21.7711 65.8655 20.7163C64.3927 21.8706 62.7309 22.4478 60.88 22.4478C59.467 22.4478 58.2828 22.0498 57.3275 21.2537C56.3722 20.4576 55.8945 19.3829 55.8945 18.0295C55.8945 17.1737 56.0836 16.4274 56.4617 15.7905C56.8399 15.1338 57.3374 14.6362 57.9544 14.2979C58.5913 13.9595 59.248 13.7108 59.9247 13.5516C60.6213 13.3923 61.3477 13.3127 62.104 13.3127C63.1787 13.3127 64.2136 13.4222 65.2087 13.6411V13.1336C65.2087 12.5963 64.95 12.1684 64.4325 11.8499C63.935 11.5116 63.1986 11.3424 62.2234 11.3424C60.7109 11.3424 59.0391 11.7106 57.2081 12.447V8.17798C59.1585 7.54112 61.0193 7.22268 62.7906 7.22268C65.2386 7.22268 67.0994 7.73019 68.3732 8.74519C69.6469 9.7602 70.2838 11.4817 70.2838 13.9098V17.9101ZM61.1188 17.6116C61.1188 18.0096 61.2781 18.348 61.5965 18.6266C61.9149 18.8853 62.3329 19.0147 62.8503 19.0147C63.7459 19.0147 64.5321 18.7659 65.2087 18.2684V16.3279C64.6714 16.1488 64.0644 16.0592 63.3877 16.0592C61.8751 16.0592 61.1188 16.5767 61.1188 17.6116ZM73.1611 11.7902C73.1611 10.1781 73.7482 9.01387 74.9224 8.2974C76.0967 7.58092 77.5893 7.22268 79.4004 7.22268C81.2712 7.22268 83.0723 7.63067 84.8038 8.44666V12.4768C84.167 12.039 83.3709 11.6808 82.4156 11.4021C81.4802 11.1036 80.5945 10.9543 79.7586 10.9543C78.8431 10.9543 78.3854 11.1932 78.3854 11.6708C78.3854 12.029 78.6441 12.3276 79.1616 12.5664C79.679 12.7853 80.306 12.9943 81.0423 13.1933C81.7787 13.3923 82.5151 13.6411 83.2515 13.9396C83.9878 14.2183 84.6148 14.686 85.1322 15.3427C85.6497 15.9995 85.9084 16.8255 85.9084 17.8206C85.9084 20.9054 83.6296 22.4478 79.072 22.4478C76.7634 22.4478 74.8428 22.01 73.3104 21.1343V17.1041C74.8428 18.1191 76.6738 18.6266 78.8033 18.6266C80.0572 18.6266 80.6841 18.3878 80.6841 17.9101C80.6841 17.5718 80.4254 17.2932 79.9079 17.0742C79.3905 16.8354 78.7635 16.6165 78.0272 16.4175C77.2908 16.2184 76.5544 15.9697 75.818 15.6711C75.0816 15.3527 74.4547 14.8651 73.9373 14.2083C73.4198 13.5516 73.1611 12.7455 73.1611 11.7902ZM88.187 1.10278H93.2621V8.74519C94.3965 7.73019 95.72 7.22268 97.2325 7.22268C99.1033 7.22268 100.526 7.77994 101.502 8.89446C102.477 9.98908 102.964 11.3922 102.964 13.1038V22H97.8893V13.7904C97.8893 13.054 97.6903 12.4967 97.2922 12.1186C96.8942 11.7405 96.3668 11.5514 95.71 11.5514C94.7348 11.5514 93.9188 11.9693 93.2621 12.8052V22H88.187V1.10278ZM107.436 20.4775C105.904 19.144 105.138 17.2633 105.138 14.8352C105.138 12.4072 105.904 10.5364 107.436 9.22284C108.989 7.8894 110.909 7.22268 113.198 7.22268C115.487 7.22268 117.397 7.8894 118.93 9.22284C120.482 10.5364 121.258 12.4072 121.258 14.8352C121.258 17.2633 120.482 19.144 118.93 20.4775C117.397 21.791 115.487 22.4478 113.198 22.4478C110.909 22.4478 108.989 21.791 107.436 20.4775ZM115.347 17.0742C115.805 16.4772 116.034 15.7308 116.034 14.8352C116.034 13.9396 115.805 13.1933 115.347 12.5963C114.89 11.9992 114.173 11.7007 113.198 11.7007C112.223 11.7007 111.506 11.9992 111.048 12.5963C110.591 13.1933 110.362 13.9396 110.362 14.8352C110.362 15.7308 110.591 16.4772 111.048 17.0742C111.506 17.6713 112.223 17.9698 113.198 17.9698C114.173 17.9698 114.89 17.6713 115.347 17.0742ZM128.057 9.61094C128.455 8.93426 129.062 8.36705 129.878 7.9093C130.714 7.45156 131.729 7.22268 132.923 7.22268C134.078 7.22268 135.113 7.4416 136.028 7.87945C136.944 8.3173 137.67 8.90441 138.207 9.64079C138.745 10.3772 139.153 11.1932 139.431 12.0887C139.71 12.9644 139.849 13.8799 139.849 14.8352C139.849 15.7905 139.71 16.716 139.431 17.6116C139.153 18.4873 138.745 19.2933 138.207 20.0297C137.67 20.7661 136.944 21.3532 136.028 21.791C135.113 22.2289 134.078 22.4478 132.923 22.4478C131.112 22.4478 129.689 21.9104 128.654 20.8357V28.5677H123.579V7.67048H128.057V9.61094ZM133.819 17.2533C134.356 16.5767 134.625 15.7706 134.625 14.8352C134.625 13.8998 134.356 13.0938 133.819 12.4171C133.302 11.7405 132.545 11.4021 131.55 11.4021C130.893 11.4021 130.306 11.5812 129.789 11.9395C129.271 12.2778 128.893 12.6958 128.654 13.1933V16.4772C128.893 16.9747 129.271 17.4026 129.789 17.7609C130.306 18.0992 130.893 18.2684 131.55 18.2684C132.545 18.2684 133.302 17.93 133.819 17.2533Z" fill="url(#paint0_linear_32_67)"/>
<defs>
<linearGradient id="paint0_linear_32_67" x1="121.281" y1="-3" x2="34.2645" y2="51.7093" gradientUnits="userSpaceOnUse">
<stop stop-color="#FF6432"/>
<stop offset="1" stop-color="#FFA228"/>
</linearGradient>
</defs>
</svg>
